<svg xmlns="http://www.w3.org/2000/svg" width="43.5" height="42.424" viewBox="0 0 43.5 42.424">
  <defs>
    <style>
      .cls-1, .cls-2 {
        fill: #d1d5de;
      }

      .cls-1 {
        stroke: rgba(0,0,0,0);
        stroke-miterlimit: 10;
      }

      .cls-3 {
        fill: #fff;
      }
    </style>
  </defs>
  <g id="组_3153" data-name="组 3153" transform="translate(-659.5 -206.576)">
    <path id="减去_1" data-name="减去 1" class="cls-1" d="M20.912,37.032H0v-3.7H19.408a12.958,12.958,0,0,0,1.5,3.7Zm-1.844-6.267H0V25.922a2.553,2.553,0,0,1,2.563-2.564h8.261a4.017,4.017,0,0,0,1.424-2.848c.137-2.062-.924-3.668-2.049-5.369-1.233-1.866-2.509-3.8-2.509-6.6a8.218,8.218,0,0,1,2.564-6.089A9.779,9.779,0,0,1,17.091,0a9.213,9.213,0,0,1,6.695,2.564,8.379,8.379,0,0,1,2.421,5.982c0,2.762-1.25,4.617-2.459,6.411-1.151,1.708-2.238,3.322-2.1,5.554a8.966,8.966,0,0,0,.457,1.438,13.06,13.06,0,0,0-3.045,8.38c0,.144,0,.291.007.436Z" transform="translate(660 207.076)"/>
    <ellipse id="椭圆_2" data-name="椭圆 2" class="cls-2" cx="10.5" cy="11" rx="10.5" ry="11" transform="translate(682 227)"/>
    <path id="联合_1" data-name="联合 1" class="cls-3" d="M0,9V1.086a1.086,1.086,0,0,1,2.173,0V6.827H7.914A1.086,1.086,0,0,1,7.914,9Z" transform="translate(692 230)"/>
  </g>
</svg>
