<svg xmlns="http://www.w3.org/2000/svg" width="43.429" height="42.424" viewBox="0 0 43.429 42.424">
  <defs>
    <style>
      .cls-1, .cls-2 {
        fill: #d1d5de;
      }

      .cls-1 {
        stroke: rgba(0,0,0,0);
        stroke-miterlimit: 10;
      }

      .cls-3 {
        fill: #fff;
      }
    </style>
  </defs>
  <g id="组_3154" data-name="组 3154" transform="translate(-872.572 -581.576)">
    <g id="组_8" data-name="组 8" transform="translate(873.072 582.076)">
      <path id="减去_1" data-name="减去 1" class="cls-1" d="M21.189,37.523H0V33.77H19.664a13.131,13.131,0,0,0,1.524,3.752Zm-1.868-6.35H0V26.266a2.587,2.587,0,0,1,2.6-2.6h8.37a4.07,4.07,0,0,0,1.443-2.886c.139-2.089-.937-3.716-2.076-5.439C9.085,13.452,7.793,11.5,7.793,8.659a8.327,8.327,0,0,1,2.6-6.169A9.909,9.909,0,0,1,17.318,0,9.335,9.335,0,0,1,24.1,2.6a8.49,8.49,0,0,1,2.453,6.061c0,2.8-1.266,4.678-2.491,6.5-1.166,1.731-2.268,3.366-2.126,5.627A9.065,9.065,0,0,0,22.4,22.24a13.234,13.234,0,0,0-3.086,8.491c0,.146,0,.294.007.441Z" transform="translate(0 0)"/>
      <ellipse id="椭圆_2" data-name="椭圆 2" class="cls-2" cx="10.5" cy="11" rx="10.5" ry="11" transform="translate(21.929 19.924)"/>
    </g>
    <g id="组_10" data-name="组 10" transform="matrix(0.985, -0.174, 0.174, 0.985, 897.978, 610.442)">
      <path id="矩形_5" data-name="矩形 5" class="cls-3" d="M1.04,0h0A1.04,1.04,0,0,1,2.08,1.04V7.131a0,0,0,0,1,0,0H0a0,0,0,0,1,0,0V1.04A1.04,1.04,0,0,1,1.04,0Z" transform="translate(0 3.215) rotate(-42)"/>
      <path id="矩形_6" data-name="矩形 6" class="cls-3" d="M1.04,0h0A1.04,1.04,0,0,1,2.08,1.04V11.588a0,0,0,0,1,0,0H0a0,0,0,0,1,0,0V1.04A1.04,1.04,0,0,1,1.04,0Z" transform="matrix(0.602, 0.799, -0.799, 0.602, 12.901, 0)"/>
    </g>
  </g>
</svg>
