<svg xmlns="http://www.w3.org/2000/svg" width="32.002" height="38" viewBox="0 0 32.002 38">
  <path id="联合_5" data-name="联合 5" d="M-15691,9420a3,3,0,0,1-3-3v-32a3,3,0,0,1,3-3h26a3.006,3.006,0,0,1,3,3v32a3,3,0,0,1-3,3Zm4-18.5a9.511,9.511,0,0,0,9.5,9.5,9.511,9.511,0,0,0,9.5-9.5,9.511,9.511,0,0,0-9.5-9.5A9.511,9.511,0,0,0-15687,9401.5Zm8,2.5v-7.912a1.086,1.086,0,0,1,1.083-1.088,1.087,1.087,0,0,1,1.087,1.088v5.742h5.743a1.086,1.086,0,0,1,1.087,1.083,1.087,1.087,0,0,1-1.087,1.087Z" transform="translate(15694.001 -9381.999)" fill="#d1d5de"/>
</svg>
