<svg xmlns="http://www.w3.org/2000/svg" width="32.459" height="37.837" viewBox="0 0 32.459 37.837">
  <defs>
    <style>
      .cls-1 {
        fill: #d1d5de;
      }
    </style>
  </defs>
  <path id="路径_320" data-name="路径 320" class="cls-1" d="M796.488,474.306a10.307,10.307,0,0,0,4.634,8.607h-15.4A2.734,2.734,0,0,1,783,480.186V447.8a2.734,2.734,0,0,1,2.726-2.726h25.9a2.734,2.734,0,0,1,2.726,2.726V467.29a10.309,10.309,0,0,0-17.864,7.016Zm-7.182-11.024c.092.4.36.654.642.654h11.181c.428,0,.771-.643.618-1.311-.092-.4-.36-.655-.642-.655H789.922c-.428,0-.771.643-.616,1.312Zm.946-7.39a.988.988,0,0,0-.927,1.312,1.01,1.01,0,0,0,.964.654H807.1a.987.987,0,0,0,.926-1.311,1.009,1.009,0,0,0-.964-.655Zm0-6.079a.987.987,0,0,0-.927,1.313,1.01,1.01,0,0,0,.964.654H807.1a.988.988,0,0,0,.926-1.312,1.01,1.01,0,0,0-.964-.655ZM806.8,465.748a8.559,8.559,0,1,1-8.458,8.558,8.559,8.559,0,0,1,8.458-8.558Zm-.684,10.266c.309,0,4.667-.375,5.7,3.32,0-6.106-3.186-7.39-5.7-7.39v-2.666l-4.329,4.7,4.329,4.719Zm0,0" transform="translate(-783 -445.076)"/>
</svg>
