<svg id="yscs_icon_empty" xmlns="http://www.w3.org/2000/svg" xmlns:xlink="http://www.w3.org/1999/xlink" width="10" height="10" viewBox="0 0 10 10">
  <defs>
    <style>
      .cls-1 {
        fill: #7570ff;
      }

      .cls-2 {
        clip-path: url(#clip-path);
      }
    </style>
  </defs>
  <g id="组_3960" data-name="组 3960" class="cls-2">
    <path id="路径_474" data-name="路径 474" class="cls-1" d="M956.541,541.7l5.053-5.045a1.152,1.152,0,0,0,0-1.629l-2.2-2.2a1.15,1.15,0,0,0-.817-.337,1.173,1.173,0,0,0-.824.347l-5.466,5.458a1.17,1.17,0,0,0-.349.823,1.141,1.141,0,0,0,.337.816l2.2,2.2a1.147,1.147,0,0,0,.816.337.963.963,0,0,0,.106-.005h6.151a.384.384,0,1,0,0-.767Zm-1.523-.108-2.2-2.2a.383.383,0,0,1-.113-.271.378.378,0,0,1,.113-.271l1.261-1.258,2.744,2.739-1.26,1.257a.386.386,0,0,1-.272.113.382.382,0,0,1-.273-.113Zm0,0" transform="translate(-951.939 -532.484)"/>
  </g>
</svg>
