<svg id="zyxz_publish_" data-name="zyxz_publish " xmlns="http://www.w3.org/2000/svg" width="16" height="16" viewBox="0 0 16 16">
  <defs>
    <style>
      .cls-1 {
        fill: none;
      }

      .cls-2 {
        fill: #fff;
      }
    </style>
  </defs>
  <path id="路径_305" data-name="路径 305" class="cls-1" d="M0,0H16V16H0Z"/>
  <path id="路径_327" data-name="路径 327" class="cls-2" d="M16.471,2a.793.793,0,0,1,.792.792V5.769L10.132,12.9l0,3.358,3.365,0,3.771-3.771v4.563a.793.793,0,0,1-.792.792H3.792A.793.793,0,0,1,3,17.055V2.792A.793.793,0,0,1,3.792,2ZM17.88,7.395,19,8.515l-6.163,6.163-1.122,0,0-1.119L17.88,7.395ZM10.132,9.924H6.17v1.585h3.962Zm2.377-3.17H6.17V8.339h6.339Z" transform="translate(-3 -2)"/>
</svg>
