<svg xmlns="http://www.w3.org/2000/svg" width="24" height="27.087" viewBox="0 0 24 27.087">
  <defs>
    <style>
      .cls-1 {
        fill: #0050b3;
      }
    </style>
  </defs>
  <path id="建筑" class="cls-1" d="M142.414,148.842h-.634c-.028.019-5.973.012-5.973-.015H134.77V124.85a1.374,1.374,0,0,0-1.362-1.362l-11.3,4a1.374,1.374,0,0,0-1.362,1.362v19.992h-.588a.867.867,0,1,0,0,1.733h22.267a.865.865,0,0,0,.867-.867A.878.878,0,0,0,142.414,148.842Zm-17.284-15.83,5.277-4a.774.774,0,0,1,0,1.547l-5.277,4a.766.766,0,0,1-.774-.774A.786.786,0,0,1,125.13,133.012Zm0,4.24,5.277-4a.774.774,0,0,1,0,1.547l-5.277,4a.766.766,0,0,1-.774-.774A.776.776,0,0,1,125.13,137.252Zm0,4.271,5.277-4a.774.774,0,0,1,0,1.547l-5.277,4a.766.766,0,0,1-.774-.774A.776.776,0,0,1,125.13,141.523Z" transform="translate(-119.296 -123.488)"/>
</svg>
