<svg xmlns="http://www.w3.org/2000/svg" width="16" height="16" viewBox="0 0 16 16">
  <defs>
    <style>
      .cls-1 {
        fill: none;
      }

      .cls-2 {
        fill: #333;
      }
    </style>
  </defs>
  <g id="ysryyj_icon_replace_n" transform="translate(-57 -12)">
    <rect id="矩形_2643" data-name="矩形 2643" class="cls-1" width="16" height="16" transform="translate(57 12)"/>
    <path id="路径_364" data-name="路径 364" class="cls-2" d="M4.7,4.008A8,8,0,0,1,16.566,14.572L14.4,10h2A6.4,6.4,0,0,0,5.419,5.53L4.7,4.009ZM15.3,15.992A8,8,0,0,1,3.434,5.428L5.6,10h-2a6.4,6.4,0,0,0,10.981,4.47l.72,1.522Z" transform="translate(55 10)"/>
    <path id="路径_366" data-name="路径 366" class="cls-2" d="M11.105,10a2,2,0,1,1,2-2A2,2,0,0,1,11.105,10ZM7.527,14a3.6,3.6,0,0,1,7.157,0Z" transform="translate(54 10)"/>
  </g>
</svg>
