<svg xmlns="http://www.w3.org/2000/svg" width="16" height="16" viewBox="0 0 16 16">
  <defs>
    <style>
      .cls-1 {
        fill: none;
      }

      .cls-2 {
        fill: #fff;
      }
    </style>
  </defs>
  <g id="sdyx_tool" transform="translate(0 0)">
    <path id="路径_305" data-name="路径 305" class="cls-1" d="M0,0H16V16H0Z" transform="translate(0 0)"/>
    <path id="路径_542" data-name="路径 542" class="cls-2" d="M5.113,3.252A3.174,3.174,0,0,1,9.169,7.309L19,17.144,17.08,19.068,7.245,9.234A3.174,3.174,0,0,1,3.189,5.176L5.217,7.205A1.36,1.36,0,1,0,7.14,5.281L5.112,3.251Zm9.4,1.709,2.886-1.6L18.683,4.64l-1.6,2.886-1.6.321L13.554,9.77,12.27,8.487l1.923-1.923.321-1.6ZM8.1,12.014l1.923,1.924L5.537,18.428A1.36,1.36,0,0,1,3.526,16.6l.088-.1L8.1,12.014Z" transform="translate(-3.004 -3.067)"/>
  </g>
</svg>
