<svg xmlns="http://www.w3.org/2000/svg" xmlns:xlink="http://www.w3.org/1999/xlink" width="386" height="208" viewBox="0 0 386 208">
  <defs>
    <style>
      .cls-1 {
        fill: #fff;
      }

      .cls-2 {
        fill: url(#linear-gradient);
      }

      .cls-3 {
        fill: url(#linear-gradient-2);
      }

      .cls-4 {
        fill: url(#linear-gradient-3);
      }

      .cls-5 {
        fill: url(#linear-gradient-6);
      }

      .cls-6 {
        fill: url(#linear-gradient-7);
      }

      .cls-7 {
        fill: url(#linear-gradient-8);
      }

      .cls-8 {
        fill: url(#linear-gradient-9);
      }

      .cls-9 {
        opacity: 0.521;
      }

      .cls-10, .cls-11 {
        stroke: #4b95f8;
      }

      .cls-10 {
        fill: url(#linear-gradient-14);
      }

      .cls-11 {
        fill: url(#linear-gradient-15);
      }
    </style>
    <linearGradient id="linear-gradient" x1="0.5" x2="0.5" y2="1" gradientUnits="objectBoundingBox">
      <stop offset="0" stop-color="#e5f0ff"/>
      <stop offset="1" stop-color="#fff" stop-opacity="0"/>
    </linearGradient>
    <linearGradient id="linear-gradient-2" x1="0.5" x2="0.5" y2="1" gradientUnits="objectBoundingBox">
      <stop offset="0" stop-color="#deedff"/>
      <stop offset="1" stop-color="#fff" stop-opacity="0"/>
    </linearGradient>
    <linearGradient id="linear-gradient-3" x1="0.5" x2="0.5" y2="1" gradientUnits="objectBoundingBox">
      <stop offset="0" stop-color="#eaf4ff"/>
      <stop offset="1" stop-color="#fff" stop-opacity="0"/>
    </linearGradient>
    <linearGradient id="linear-gradient-6" x1="0.5" x2="0.5" y2="1" gradientUnits="objectBoundingBox">
      <stop offset="0" stop-color="#edf5ff"/>
      <stop offset="1" stop-color="#fff" stop-opacity="0"/>
    </linearGradient>
    <linearGradient id="linear-gradient-7" x1="0.5" x2="0.5" y2="1" gradientUnits="objectBoundingBox">
      <stop offset="0" stop-color="#e4f0ff"/>
      <stop offset="1" stop-color="#fff" stop-opacity="0"/>
    </linearGradient>
    <linearGradient id="linear-gradient-8" x1="0.5" x2="0.5" y2="1" gradientUnits="objectBoundingBox">
      <stop offset="0" stop-color="#d9ebff"/>
      <stop offset="1" stop-color="#fff" stop-opacity="0"/>
    </linearGradient>
    <linearGradient id="linear-gradient-9" x1="0.213" y1="1.265" x2="0.846" gradientUnits="objectBoundingBox">
      <stop offset="0" stop-color="#fff"/>
      <stop offset="1" stop-color="#e9f3ff"/>
    </linearGradient>
    <linearGradient id="linear-gradient-14" y1="0.537" x2="1" y2="0.537" gradientUnits="objectBoundingBox">
      <stop offset="0" stop-color="#e9f0f1"/>
      <stop offset="0.001" stop-color="#95c2fc" stop-opacity="0.4"/>
      <stop offset="0.999" stop-color="#6aa9fa" stop-opacity="0.8"/>
      <stop offset="1" stop-color="#cfdcdc"/>
    </linearGradient>
    <linearGradient id="linear-gradient-15" y1="-0.301" x2="1" y2="-0.301" gradientUnits="objectBoundingBox">
      <stop offset="0" stop-color="#e9f0f1"/>
      <stop offset="0.001" stop-color="#d4e6fe" stop-opacity="0.8"/>
      <stop offset="0.999" stop-color="#398dfa"/>
      <stop offset="1" stop-color="#cfdcdc"/>
    </linearGradient>
  </defs>
  <g id="ISV_contactus_img" transform="translate(-1246 -882.43)">
    <rect id="矩形_3475" data-name="矩形 3475" class="cls-1" width="386" height="208" transform="translate(1246 882.43)"/>
    <g id="组_414" data-name="组 414" transform="translate(1318 898.002)">
      <g id="组_409" data-name="组 409" transform="translate(-61.893 13)">
        <path id="路径_285" data-name="路径 285" class="cls-2" d="M0,15.4,52.206,0V133.765L0,149.162Z" transform="translate(25.497 15.891)"/>
        <path id="路径_286" data-name="路径 286" class="cls-3" d="M-.873,15.38-26.361-.469V133.3L-.874,149.146Z" transform="translate(26.37 15.907)"/>
        <path id="路径_287" data-name="路径 287" class="cls-4" d="M-.88,14.925,51.334-.551l-25.5-15.886L-26.372-.968Z" transform="translate(26.372 16.437)"/>
      </g>
      <g id="组_410" data-name="组 410" transform="translate(194.049 15.478)">
        <path id="路径_288" data-name="路径 288" class="cls-2" d="M0,14,50.98,0V121.613L0,135.612Z" transform="translate(24.9 15.518)"/>
        <path id="路径_289" data-name="路径 289" class="cls-3" d="M-1.473,13.944-26.361-.469V121.173l24.888,14.412Z" transform="translate(26.374 15.543)"/>
        <path id="路径_290" data-name="路径 290" class="cls-5" d="M-1.475,14.186,49.506-.919l-24.9-15.518-50.98,15.1Z" transform="translate(26.375 16.437)"/>
      </g>
      <g id="组_411" data-name="组 411" transform="translate(-19.066 57.492)">
        <path id="路径_291" data-name="路径 291" class="cls-6" d="M0,10.728,43.988,0V93.2L0,103.931Z" transform="translate(21.484 13.388)"/>
        <path id="路径_292" data-name="路径 292" class="cls-7" d="M-4.887,10.579-26.36-.464V92.791l21.473,11.043Z" transform="translate(26.373 13.477)"/>
        <path id="路径_293" data-name="路径 293" class="cls-8" d="M-4.891,9.985,39.1-3.048,17.613-16.437-26.375-3.4Z" transform="translate(26.375 16.437)"/>
      </g>
      <g id="组_411-2" data-name="组 411" class="cls-9" transform="translate(63.934 16.492)">
        <path id="路径_291-2" data-name="路径 291" class="cls-6" d="M0,13.033,43.988,0V113.228L0,126.262Z" transform="translate(21.484 13.388)"/>
        <path id="路径_292-2" data-name="路径 292" class="cls-7" d="M-4.887,12.944-26.36-.464V112.758l21.473,13.408Z" transform="translate(26.373 13.477)"/>
        <path id="路径_293-2" data-name="路径 293" class="cls-8" d="M-4.891,9.985,39.1-3.048,17.613-16.437-26.375-3.4Z" transform="translate(26.375 16.437)"/>
      </g>
      <path id="减去_130" data-name="减去 130" class="cls-3" d="M253.9,75.6H0A73.26,73.26,0,0,1,14.91,45.713,106.311,106.311,0,0,1,43.07,21.734,147.346,147.346,0,0,1,81.431,5.788a181.885,181.885,0,0,1,91.036,0,147.345,147.345,0,0,1,38.361,15.946,106.311,106.311,0,0,1,28.158,23.979A73.263,73.263,0,0,1,253.9,75.6Z" transform="translate(0 109.187)"/>
    </g>
    <g id="评价" transform="translate(1237.668 870.13)">
      <path id="路径_589" data-name="路径 589" class="cls-10" d="M207,63.4H124.3a7.178,7.178,0,0,0-7,7.4v57.7a7.178,7.178,0,0,0,7,7.4h48.1c0-47.2,41.6-27.4,41.6-31.5V70.8A7.243,7.243,0,0,0,207,63.4Zm-50.9,42.8H132.5a4,4,0,0,1,0-8h23.6a4,4,0,0,1,0,8Zm31.5-20.9H132.5a4,4,0,0,1,0-8h55.1a4.012,4.012,0,0,1,4,4A4.078,4.078,0,0,1,187.6,85.3Z"/>
      <path id="路径_590" data-name="路径 590" class="cls-11" d="M252.5,93.1H172c-3.8,0-6.8,3.3-6.8,7.4v55.2c0,4.1,3,7.4,6.8,7.4h57.8a.6.6,0,0,1,.4.1l16.6,9.1a.885.885,0,0,0,1.3-.8l.1-7.4a.9.9,0,0,1,.9-.9h3.5c3.8,0,6.8-3.3,6.8-7.4V100.6C259.3,96.4,256.3,93.1,252.5,93.1Zm-12.1,45H207.5a4,4,0,0,1,0-8h32.9a4,4,0,0,1,0,8Zm0-20.9H185.3a4,4,0,0,1,0-8h55.1a4,4,0,0,1,0,8Z"/>
    </g>
  </g>
</svg>
