<svg xmlns="http://www.w3.org/2000/svg" xmlns:xlink="http://www.w3.org/1999/xlink" width="24" height="24" viewBox="0 0 24 24">
  <defs>
    <style>
      .cls-1 {
        fill: none;
      }

      .cls-2 {
        fill: url(#linear-gradient);
      }

      .cls-3 {
        fill: #237804;
      }
    </style>
    <linearGradient id="linear-gradient" x1="0.87" y1="0.5" x2="0" y2="0.5" gradientUnits="objectBoundingBox">
      <stop offset="0" stop-color="#fff"/>
      <stop offset="1" stop-color="#c3eab2"/>
    </linearGradient>
  </defs>
  <g id="ISV_icon_support" transform="translate(-1304 -304)">
    <rect id="矩形_2853" data-name="矩形 2853" class="cls-1" width="24" height="24" transform="translate(1304 304)"/>
    <circle id="椭圆_287" data-name="椭圆 287" class="cls-2" cx="7.5" cy="7.5" r="7.5" transform="translate(1306 309)"/>
    <path id="勾" class="cls-3" d="M16,1.387a14.522,14.522,0,0,0-5.547,4.267,33.053,33.053,0,0,0-4.48,6.08A14.985,14.985,0,0,0,0,6.293L2.24,4.16A12.244,12.244,0,0,1,5.653,8.107,23.448,23.448,0,0,1,16,0V1.387Zm0,0" transform="translate(1309 309.133)"/>
  </g>
</svg>
