<svg xmlns="http://www.w3.org/2000/svg" width="89.583" height="78.432" viewBox="0 0 89.583 78.432">
  <defs>
    <style>
      .cls-1 {
        fill: #edf4ff;
      }
    </style>
  </defs>
  <g id="jggl_refuse_icon" transform="translate(-0.076 -0.012)">
    <g id="已拒绝">
      <path id="形状" class="cls-1" d="M89.036,26.578,75.425,5.116a4.035,4.035,0,0,0-5.549-1.247L1.943,46.844a4.027,4.027,0,0,0-1.25,5.539L14.3,73.848a4.033,4.033,0,0,0,5.544,1.242L87.784,32.118A4.012,4.012,0,0,0,89.036,26.578Zm-2.711,3.233L18.39,72.789a1.278,1.278,0,0,1-1.766-.4L3.013,50.927a1.28,1.28,0,0,1,.4-1.769L71.35,6.183a1.277,1.277,0,0,1,1.763.4L86.73,28.048A1.3,1.3,0,0,1,86.325,29.811ZM27.763,16.192,28.891,18.9l1.462-2.539,2.92-.236-1.967-2.176.67-2.846-2.669,1.2L26.8,10.782l.318,2.915-2.224,1.9,2.87.6Zm17.3-8.055-1.4-2.576L42.469,8.243l-2.886.551,2.179,1.954-.376,2.9,2.542-1.469,2.651,1.258-.612-2.87,2.009-2.129Zm26.372,43.15L69.11,49.5l-.01,2.926-2.425,1.645,2.793.921.823,2.809,1.732-2.364,2.931.082-1.721-2.377.993-2.746-2.793.89ZM61.953,62.952l-1.107-2.714-1.486,2.529-2.918.212,1.949,2.187L57.7,68.009l2.685-1.173,2.5,1.551-.294-2.918,2.224-1.893-2.857-.625ZM44.589,70.885l1.39,2.587L47.192,70.8l2.886-.516-2.166-1.975.4-2.9-2.552,1.443L43.12,65.571l.588,2.864-2.039,2.121,2.92.328ZM18.578,27.532l2.309,1.814.034-2.928,2.436-1.636-2.778-.94-.8-2.822-1.753,2.348-2.931-.106,1.7,2.388L15.779,28.4l2.8-.871ZM8.265,40.174A36.49,36.49,0,0,1,61.2,6.678l2.679-1.695A39.264,39.264,0,0,0,6.449,30.635a38.894,38.894,0,0,0-.871,11.232Zm72.952-1.9A36.477,36.477,0,0,1,28.3,71.774l-2.685,1.7A39.232,39.232,0,0,0,83.034,47.823,38.845,38.845,0,0,0,83.9,36.586ZM33.321,21.2A21.236,21.236,0,0,1,43.4,17.944l4.146-2.621a24.1,24.1,0,0,0-25.635,16.22l4.144-2.621A21.2,21.2,0,0,1,33.321,21.2ZM56.173,57.249A21.173,21.173,0,0,1,46.1,60.511l-4.144,2.621A24.1,24.1,0,0,0,67.582,46.91l-4.141,2.627A21.246,21.246,0,0,1,56.173,57.249Z"/>
      <path id="路径" class="cls-1" d="M11.256,51.155l12.265-7.867.1-1.327,2.1.129L25.3,43.1q2.872,4.478,3.865,5.842l-.973,1.256-.718-1.119L16.8,55.919l4.164,6.493q.681,1.249,2.146.2l10.081-6.466q1.56-.895,1.01-2.122A37.992,37.992,0,0,0,32.4,50.655l.42-.269q2.441,3.806,3.8,3.147.105,1.828-2.175,3.08L22.763,64.1q-1.717,1.205-2.877-.788-4.929-7.685-5.78-8.827l2.363-.567-.337.953.383.6,10.669-6.843-3.207-5-9.661,6.2a10.165,10.165,0,0,0-1.873,1.517l-1.187-.187Z"/>
      <path id="形状-2" data-name="形状" class="cls-1" d="M21.547,65.107a2.524,2.524,0,0,1-2.13-1.505c-3.252-5.07-5.187-8.026-5.752-8.786l-.5-.668,4.156-1L16.8,54.636l9.626-6.174-2.614-4.075-9.2,5.9a9.662,9.662,0,0,0-1.772,1.434l-.2.208-2.9-.456,13.252-8.5.117-1.594,3.411.209-.608,1.454c1.82,2.835,3.062,4.709,3.691,5.572l.243.334-1.7,2.2-.842-1.312-9.744,6.25,3.887,6.064c.215.393.409.393.492.393a1.582,1.582,0,0,0,.853-.374l.023-.015,10.1-6.48c1.128-.647.894-1.17.782-1.422-.357-.8-.956-1.913-1.779-3.317l-.267-.455,1.327-.851.3.463c1.732,2.7,2.612,2.992,2.911,2.992a.4.4,0,0,0,.184-.042l.741-.361.047.823c.083,1.438-.739,2.643-2.442,3.584L23.068,64.559A2.681,2.681,0,0,1,21.547,65.107ZM15.019,54.834c.889,1.3,2.675,4.046,5.329,8.185l.013.02c.374.643.773.969,1.186.969a1.639,1.639,0,0,0,.9-.355l.019-.013.288-.185a2.029,2.029,0,0,1-.814.185,1.614,1.614,0,0,1-1.446-.948l-4.97-7.748.089-.253-.594.143Zm19.5-1.44q.1.2.19.407a1.908,1.908,0,0,1-.574,2.358l.045-.027a3.316,3.316,0,0,0,1.838-1.961,2.807,2.807,0,0,1-1.5-.776Zm-6.572-4.6.288.45.246-.317c-.714-1.014-1.911-2.832-3.643-5.532l-.156-.243.234-.56-.785-.048-.026.352.041-.026,3.8,5.925Z"/>
      <path id="形状-3" data-name="形状" class="cls-1" d="M39.289,44.023q-1.732,3.219-1.444,3.665l-2.122-.535a26.151,26.151,0,0,0,3.039-3.95l-2.393-3.731-1.26.808A10.157,10.157,0,0,0,33.237,41.8L32.05,41.61l4.033-2.586q-1.531-2.387-2.86-4.275L35.9,34.3l-.505,1.061,1.867,2.91,1.176-.754.361-1.285,2.11.332-3.36,2.155L39.652,42l1.838-2.864.443.137-1.851,3.4,4.4,6.866q.777,1.4-.652,3.051-.527-.822-3.226-.038l-.239-.373a24.972,24.972,0,0,0,2.454-1.258q.63-.4.056-1.3l-3.589-5.6ZM51.236,32.886q2.441,3.806,3.387,5.1l-.973,1.256-.766-1.194L46.667,42.03l3.015,4.7,6.553-4.2.47-1.671,2.506.394-9.157,5.873-.409,1.21-1.714-.27.385-.879-7.18-11.194q-1.1-1.716-2.095-3.08l1.907-.17,5.8-3.718.434-1.542,2.374.373L41.066,33.3l2.25,3.507,6.133-3.934.325-1.157,1.846.29-.385.879ZM43.6,37.254l2.776,4.328L52.6,37.6,49.82,33.267,43.6,37.254Z"/>
      <path id="形状-4" data-name="形状" class="cls-1" d="M43.769,53.505l-.4-.62c-.067-.1-.308-.167-.645-.167a7.569,7.569,0,0,0-1.965.361l-.394.114-.8-1.247.568-.266a24.719,24.719,0,0,0,2.39-1.223c.075-.048.076-.072.077-.088a.879.879,0,0,0-.187-.452l-3.08-4.8a8.546,8.546,0,0,0-.981,2.351l.7,1.1-4.7-1.185,1.068-.685a22.972,22.972,0,0,0,2.674-3.5L36.2,40.23l-.8.512a9.654,9.654,0,0,0-1.772,1.434l-.2.208-2.9-.456,4.786-3.07c-.891-1.379-1.748-2.653-2.55-3.793l-.5-.713,4.575-.772-.828,1.739,1.405,2.191.538-.345.437-1.554,2.042.321c-.634-.977-1.254-1.882-1.845-2.7l-.57-.784,2.738-.244,5.507-3.532.509-1.811,4.284.674-9.24,5.926,1.656,2.582,5.495-3.524.4-1.425,3.032.477-.552,1.262c1.533,2.386,2.612,4.007,3.208,4.819l.245.334-1.7,2.2L52.717,38.8,47.425,42.2l2.422,3.777,5.915-3.794.546-1.939,4.416.694-10.212,6.55-.5,1.467L47.14,48.5l.553-1.262-5.122-7.986-1.851,3.4,4.246,6.621c.439.79.672,2.07-.716,3.677l-.481.557Zm-1.042-1.886a2.366,2.366,0,0,1,1.016.194,1.736,1.736,0,0,0,.27-1.994L39.444,42.7h0l-2.658-4.144L34.764,35.4l.182-.383-.778.131c.755,1.1,1.553,2.3,2.376,3.58l.3.463,6.5,10.135a1.889,1.889,0,0,1,.36,1.093,1.175,1.175,0,0,1-.581.966q-.2.124-.4.236Zm5.992-3.985.553.087.135-.4L43.15,37.565h0L42.336,36.3l-.251.161,6.85,10.681Zm-11.952-.785.565.143A11.543,11.543,0,0,1,38.163,45C37.53,45.878,37.086,46.46,36.767,46.849ZM57.1,41.477l-.163.58.758-.486ZM38.3,38.883l1.347,2.1,1.6-2.5,1.033.319L41.16,37.051Zm6.058-1.463,2.183,3.4,5.292-3.394-2.183-3.4L44.362,37.42Zm8.687-.136.642,1,.245-.316c-.663-.936-1.7-2.509-3.163-4.787l-.159-.248.217-.5-.661-.1-.09.321,2.968,4.628Zm-13.856-.436-.055.195.254-.163-.2-.031Zm2.7-.687.394.062L40.44,33.34l-.4.035c.5.72,1.024,1.5,1.553,2.322l.3.464Zm5.68-8.059-.127.452.59-.379-.463-.073Z"/>
      <path id="形状-5" data-name="形状" class="cls-1" d="M60.373,32.712l5.33-4.261.191.3q-2.066,1.957-3.482,3.445a12.513,12.513,0,0,0-2.006,2.6l-1.7-.8a4.563,4.563,0,0,0,1.179-2.6,40.257,40.257,0,0,0,.534-4.714q-1,.851-2.149,2.01A5.114,5.114,0,0,0,56.9,30.623l-1.75-.879q.923-.592.976-3.839a22.6,22.6,0,0,0-.413-5.265l2.3-.108-.6.912a54.867,54.867,0,0,1-.921,7.437l3.889-2.81a17.822,17.822,0,0,0-.114-4.245l2.266.021-.733.891a69.685,69.685,0,0,1-1.428,9.974Zm.676,5.676a26.991,26.991,0,0,0,2.035-2.1q1.495-1.643,4.294-5.229l.359.191q-4.709,6.709-4.819,7.83l-1.87-.7Zm4-22.788-.517.858q.07,1.219.033,2.085l3.612-2.317.361-1.285,2.158.407a3.665,3.665,0,0,0-1.016,2.021,23.06,23.06,0,0,0-.382,3.194l2.6-1.67.325-1.157,1.583.249-.385.879q2.2,3.434,2.812,4.2L75.4,24.34l-.622-.97-6.469,4.149,2.633,4.1q.718,1.119,2.062.257l5.461-3.5a.749.749,0,0,0,.265-1.065q-.323-.686-1.579-2.832l.42-.269a10.77,10.77,0,0,0,1.85,2.237,1.912,1.912,0,0,0,1.3.272,1.96,1.96,0,0,1-.6,1.751c-.445.355-.75.587-.918.694l-6.3,4.041a1.791,1.791,0,0,1-2.817-.51l-5.792-9.03a14.2,14.2,0,0,1-1.179,2.968l-.4-.062a16.966,16.966,0,0,0,.745-5.955,23.716,23.716,0,0,0-.719-4.911l2.3-.108Zm3.746,5.286-.246-4.266L64.684,19.1a38.265,38.265,0,0,1-.257,3.851l1.007.092,3.36-2.155Zm-3.073,2.6,2.3,3.582,2.688-1.724-2.3-3.582Zm3.7-2.371,2.3,3.582,2.772-1.778-2.3-3.582Z"/>
      <path id="形状-6" data-name="形状" class="cls-1" d="M63.4,39.849,59.97,38.572l.728-.606a26.785,26.785,0,0,0,1.98-2.043c.986-1.084,2.422-2.833,4.267-5.2l.284-.364,1.072.569-3.837-5.983A13.682,13.682,0,0,1,63.6,26.9l-.185.339-1.4-.221.184-.6a16.96,16.96,0,0,0,.732-4.178l-.59.717a72.26,72.26,0,0,1-1.113,8.377l4.613-3.688.766,1.195-.33.313c-1.35,1.279-2.515,2.431-3.462,3.425a12.046,12.046,0,0,0-1.918,2.481l-.246.464-2.925-1.383.617-.552a4.09,4.09,0,0,0,1.005-2.291c.171-.906.312-2.009.424-3.292q-.564.529-1.109,1.077a4.494,4.494,0,0,0-1.23,1.693l-.18.641L54.041,29.8l.812-.521c.159-.1.68-.647.724-3.385a22.168,22.168,0,0,0-.4-5.133l-.148-.641,4.038-.189-1.114,1.691a58.267,58.267,0,0,1-.673,6.01l2.58-1.865a18.161,18.161,0,0,0-.139-3.874l-.079-.624,3.3.03q0-.327-.024-.652a23.306,23.306,0,0,0-.7-4.794l-.186-.665L66.049,15,65.089,16.6c.017.33.029.642.034.936L67.7,15.876l.441-1.569,3.724.7-.8.741a3.155,3.155,0,0,0-.851,1.728A19.435,19.435,0,0,0,69.93,19.5l1.5-.962.4-1.425,2.768.435-.553,1.262c1.364,2.122,2.245,3.435,2.621,3.906l.249.312-1.526,2.316-.782-1.219-5.544,3.556L71.4,31.327c.216.336.406.38.548.38a1.523,1.523,0,0,0,.755-.288l5.461-3.5c.118-.075.183-.117.064-.37-.209-.444-.733-1.382-1.555-2.787l-.267-.455,1.307-.839.3.431a9.759,9.759,0,0,0,1.706,2.1,1.378,1.378,0,0,0,.94.181l.57-.057.033.572a2.478,2.478,0,0,1-.8,2.212c-.478.381-.785.612-.965.728L73.2,33.67a3.037,3.037,0,0,1-1.618.548,2.3,2.3,0,0,1-1.959-1.225L68.46,31.181l-.273.389c-4.177,5.951-4.694,7.275-4.722,7.567l-.068.712Zm-1.331-1.669.5.187a14.093,14.093,0,0,1,.883-1.661C62.886,37.326,62.427,37.815,62.066,38.181Zm-2.289-4.288.408.193a11.886,11.886,0,0,1,.927-1.26Zm5.09-10.351L70.548,32.4c.46.717.89.719,1.033.719h0a1.986,1.986,0,0,0,1.024-.375l.234-.15a2.141,2.141,0,0,1-.89.21,1.709,1.709,0,0,1-1.474-.885l-2.623-4.09h0l-2.736-4.266-.25-.023ZM56.293,29.7l.333.167a5.575,5.575,0,0,1,.572-.821l-.9.653Zm22.859-2.772q.04.08.071.147a1.3,1.3,0,0,1-.185,1.534c.164-.118.412-.309.741-.571a1.118,1.118,0,0,0,.377-.772,2.246,2.246,0,0,1-1-.338ZM66.48,23.655l1.7,2.657,1.763-1.131-1.7-2.657Zm-5.6-1.274a19.155,19.155,0,0,1,.1,3.09L61,25.46q.151-1.379.253-2.762l.013-.174.114-.138-.495,0Zm8-.9,2.279,3.553.083-.053L68.965,21.43Zm-12.5-.324a21.108,21.108,0,0,1,.279,2.847q.131-1.3.209-2.6l.009-.146.088-.133-.585.027Zm13.8.125,1.7,2.657,1.847-1.185-1.7-2.657Zm4.764,1.327.463.721.163-.247c-.491-.676-1.348-1.969-2.6-3.925l-.159-.248.217-.5-.4-.062L72.5,18.8l2.442,3.807Zm-9.91-.158.266.024,2.931-1.88-.174-3.007L65.231,19.4c-.015.833-.082,1.856-.2,3.052Zm-1.587-6.228a26.6,26.6,0,0,1,.569,4.361q.018.314.024.629c.051-.651.081-1.232.092-1.74l-.159.1.045-1.057c.024-.559.013-1.242-.033-2.03l-.01-.17.074-.124Zm5.6-.575.094,1.634.005-.026a4.987,4.987,0,0,1,.564-1.539l-.775-.146-.051.18.162-.1Z"/>
    </g>
  </g>
</svg>
