<svg xmlns="http://www.w3.org/2000/svg" width="89.583" height="78.432" viewBox="0 0 89.583 78.432">
  <defs>
    <style>
      .cls-1 {
        fill: #edf4ff;
      }
    </style>
  </defs>
  <g id="jggl_pass_icon" transform="translate(-0.076 -0.012)">
    <g id="已通过">
      <path id="形状" class="cls-1" d="M89.036,26.578,75.425,5.116a4.035,4.035,0,0,0-5.549-1.247L1.943,46.844a4.027,4.027,0,0,0-1.25,5.539L14.3,73.848a4.033,4.033,0,0,0,5.544,1.242L87.784,32.118A4.012,4.012,0,0,0,89.036,26.578Zm-2.711,3.233L18.39,72.789a1.278,1.278,0,0,1-1.766-.4L3.013,50.927a1.28,1.28,0,0,1,.4-1.769L71.35,6.183a1.277,1.277,0,0,1,1.763.4L86.73,28.048A1.3,1.3,0,0,1,86.325,29.811ZM27.763,16.192,28.891,18.9l1.462-2.539,2.92-.236-1.967-2.176.67-2.846-2.669,1.2L26.8,10.782l.318,2.915-2.224,1.9,2.87.6Zm17.3-8.055-1.4-2.576L42.469,8.243l-2.886.551,2.179,1.954-.376,2.9,2.542-1.469,2.651,1.258-.612-2.87,2.009-2.129Zm26.372,43.15L69.11,49.5l-.01,2.926-2.425,1.645,2.793.921.823,2.809,1.732-2.364,2.931.082-1.721-2.377.993-2.746-2.793.89ZM61.953,62.952l-1.107-2.714-1.486,2.529-2.918.212,1.949,2.187L57.7,68.009l2.685-1.173,2.5,1.551-.294-2.918,2.224-1.893-2.857-.625ZM44.589,70.885l1.39,2.587L47.192,70.8l2.886-.516-2.166-1.975.4-2.9-2.552,1.443L43.12,65.571l.588,2.864-2.039,2.121,2.92.328ZM18.578,27.532l2.309,1.814.034-2.928,2.436-1.636-2.778-.94-.8-2.822-1.753,2.348-2.931-.106,1.7,2.388L15.779,28.4l2.8-.871ZM8.265,40.174A36.49,36.49,0,0,1,61.2,6.678l2.679-1.695A39.264,39.264,0,0,0,6.449,30.635a38.894,38.894,0,0,0-.871,11.232Zm72.952-1.9A36.477,36.477,0,0,1,28.3,71.774l-2.685,1.7A39.232,39.232,0,0,0,83.034,47.823,38.845,38.845,0,0,0,83.9,36.586ZM33.321,21.2A21.236,21.236,0,0,1,43.4,17.944l4.146-2.621a24.1,24.1,0,0,0-25.635,16.22l4.144-2.621A21.2,21.2,0,0,1,33.321,21.2ZM56.173,57.249A21.173,21.173,0,0,1,46.1,60.511l-4.144,2.621A24.1,24.1,0,0,0,67.582,46.91l-4.141,2.627A21.246,21.246,0,0,1,56.173,57.249Z"/>
      <path id="路径" class="cls-1" d="M11.256,51.155l12.265-7.867.1-1.327,2.1.129L25.3,43.1q2.872,4.478,3.865,5.842l-.973,1.256-.718-1.119L16.8,55.919l4.164,6.493q.681,1.249,2.146.2l10.081-6.466q1.56-.895,1.01-2.122A37.992,37.992,0,0,0,32.4,50.655l.42-.269q2.441,3.806,3.8,3.147.105,1.828-2.175,3.08L22.763,64.1q-1.717,1.205-2.877-.788-4.929-7.685-5.78-8.827l2.363-.567-.337.953.383.6,10.669-6.843-3.207-5-9.661,6.2a10.165,10.165,0,0,0-1.873,1.517l-1.187-.187Z"/>
      <path id="形状-2" data-name="形状" class="cls-1" d="M21.547,65.107a2.524,2.524,0,0,1-2.13-1.505c-3.252-5.07-5.187-8.026-5.752-8.786l-.5-.668,4.156-1L16.8,54.636l9.626-6.174-2.614-4.075-9.2,5.9a9.662,9.662,0,0,0-1.772,1.434l-.2.208-2.9-.456,13.252-8.5.117-1.594,3.411.209-.608,1.454c1.82,2.835,3.062,4.709,3.691,5.572l.243.334-1.7,2.2-.842-1.312-9.744,6.25,3.887,6.064c.215.393.409.393.492.393a1.582,1.582,0,0,0,.853-.374l.023-.015,10.1-6.48c1.128-.647.894-1.17.782-1.422-.357-.8-.956-1.913-1.779-3.317l-.267-.455,1.327-.851.3.463c1.732,2.7,2.612,2.992,2.911,2.992a.4.4,0,0,0,.184-.042l.741-.361.047.823c.083,1.438-.739,2.643-2.442,3.584L23.068,64.559A2.681,2.681,0,0,1,21.547,65.107ZM15.019,54.834c.889,1.3,2.675,4.046,5.329,8.185l.013.02c.374.643.773.969,1.186.969a1.639,1.639,0,0,0,.9-.355l.019-.013.288-.185a2.029,2.029,0,0,1-.814.185,1.614,1.614,0,0,1-1.446-.948l-4.97-7.748.089-.253-.594.143Zm19.5-1.44q.1.2.19.407a1.908,1.908,0,0,1-.574,2.358l.045-.027a3.316,3.316,0,0,0,1.838-1.961,2.807,2.807,0,0,1-1.5-.776Zm-6.572-4.6.288.45.246-.317c-.714-1.014-1.911-2.832-3.643-5.532l-.156-.243.234-.56-.785-.048-.026.352.041-.026,3.8,5.925Z"/>
      <path id="形状-3" data-name="形状" class="cls-1" d="M31.624,37.248l.072-.257a12.434,12.434,0,0,1,2.56-.167,1.67,1.67,0,0,1,1.384.587,1.383,1.383,0,0,1,.214,1.074q-.121.552-.289.659-.337.216-.935-.348a8.834,8.834,0,0,0-3.008-1.547ZM42.282,47.581a8.291,8.291,0,0,0,3.208.1,17.275,17.275,0,0,0,5.477-2.46A75.629,75.629,0,0,0,58.9,39.66l.191.3q-1.443,1.451-.735,2.367-3.95,2.533-6.523,3.973A20.729,20.729,0,0,1,47.4,48.251a7.258,7.258,0,0,1-3.364.209q-1.583-.249-1.979.058a3.405,3.405,0,0,0-.728,1.731,8.748,8.748,0,0,0-.273,2.44l-1.883-.162a13.227,13.227,0,0,1,2.116-4.1l-4.021-6.269-.588.377A10.15,10.15,0,0,0,34.8,44.056l-1.187-.187,3.276-2.1.025-1.07,1.918.033-.337.954Zm9.529-6.217q1.391-.786,2.064-1.219t.289-1.028L52.681,36.8l-3.949,2.533,2.154,3.358-.8,1.148L47.64,40.036l-3.7,2.371,2.3,3.582-.889,1.2q-1.21-2.068-3.41-5.5t-3.387-5.1l1.907-.17,3.612-2.317q-.934-1.084-3.272-.85l.025-.332a9.943,9.943,0,0,1,3.395-.808l1.371-3.408-5.629,3.61a10.626,10.626,0,0,0-1.957,1.571L36.821,33.7l8.569-5.5.325-1.156,2.422.448q-1.392.789-3.52,4.68a1.131,1.131,0,0,1,.371.394.992.992,0,0,1,.011.941l3.78-2.425.109-1.123,1.787.013-.253.9L55.5,38.789q.9,1.217-.447,2.815-.754-.99-3.046.058l-.192-.3ZM40.5,37.034l1.436,2.239,3.7-2.371-1.436-2.239-3.7,2.371Zm1.723,2.686,1.436,2.239,3.7-2.371L45.917,37.35l-3.7,2.371Zm3.065-5.758L46.722,36.2l3.949-2.533L49.235,31.43Zm1.723,2.686,1.436,2.239,3.949-2.533-1.436-2.239-3.949,2.533Z"/>
      <path id="形状-4" data-name="形状" class="cls-1" d="M41.638,53.29l-3.177-.274.18-.639a13.433,13.433,0,0,1,1.982-3.963L37.1,42.921,36.974,43A9.655,9.655,0,0,0,35.2,44.436l-.2.208-2.9-.456,4.248-2.724.032-1.324,3.227.056-.5,1.419L42.624,47.1a6.9,6.9,0,0,0,1.437.144h0c.216,0,.439-.009.667-.026-.8-1.357-1.893-3.114-3.249-5.227-1.445-2.252-2.579-3.959-3.372-5.073l-.556-.781,2.727-.243,2.85-1.828a4.226,4.226,0,0,0-2.271-.258l-.651.066.082-1.1-.027.017A10.13,10.13,0,0,0,38.4,34.271l-.2.208-2.9-.456,9.61-6.164.4-1.438,4.4.814-1.312.744c-.55.312-1.528,1.279-3.1,4.094a2.5,2.5,0,0,1,.146.205,1.308,1.308,0,0,1,.114.222l2.694-1.728.132-1.358,3.009.021-.381,1.355,4.931,7.689a2.347,2.347,0,0,1,.071,2.69q1.286-.948,2.539-1.939l.476-.376.757,1.18-.311.313c-.732.736-.964,1.289-.689,1.644l.366.475-.5.324c-2.622,1.682-4.826,3.024-6.551,3.99a21.364,21.364,0,0,1-4.562,2,7.841,7.841,0,0,1-3.606.22,7.313,7.313,0,0,0-1.082-.1,1.124,1.124,0,0,0-.471.059s-.236.2-.522,1.416a8.269,8.269,0,0,0-.26,2.282Zm-1.732-1.252.594.051a10.435,10.435,0,0,1,.266-1.858A11.691,11.691,0,0,0,39.906,52.038Zm-2.454-10.6,4.265,6.649a1.08,1.08,0,0,1,.168-.106l-3.991-6.222.172-.488-.61-.011,0,.177ZM57.6,41.359a71.6,71.6,0,0,1-6.354,4.336,29.286,29.286,0,0,1-3.743,1.953,21.283,21.283,0,0,0,4.061-1.828c1.613-.9,3.656-2.143,6.076-3.688a1.6,1.6,0,0,1-.039-.772ZM44.7,42.573l2.205,3.438-.694.939a22.56,22.56,0,0,0,4.471-2.2c1.29-.772,2.644-1.659,4.05-2.653l-.123-.161a.737.737,0,0,0-.659-.264,4.462,4.462,0,0,0-1.722.489l-.434.2-.763-1.189.506-.286c.907-.513,1.593-.917,2.038-1.2.145-.093.174-.153.176-.159a.366.366,0,0,0-.053-.11l-1.187-1.851L49.492,39.5l2.056,3.206-1.487,2.121L47.475,40.8,44.7,42.573Zm-5.154-5.515c.747,1.087,1.7,2.541,2.856,4.336,1.216,1.9,2.222,3.507,3,4.805l.171-.231-5.731-8.936Zm8.257,2.22,2.3,3.579.123-.176-5.392-8.406-.167.107,3.14,4.9Zm-4.826.609.843,1.314,2.771-1.778-.843-1.314Zm11.225.7a1.929,1.929,0,0,1,.751.226c.558-.864.336-1.375.1-1.7l-.02-.029-5.207-8.118.125-.444-.565,0-.017.171.03-.019,5.227,8.149a1.2,1.2,0,0,1-.423,1.766ZM41.257,37.2l.843,1.314,2.771-1.778-.843-1.314L41.257,37.2Zm6.512-.385.843,1.314,3.024-1.939-.843-1.314Zm-1.723-2.686.843,1.314L49.912,33.5l-.843-1.314Zm-3.079-1.3a3.045,3.045,0,0,1,1.4.782l.123-.3c.081-.2.094-.349.036-.439a.714.714,0,0,0-.172-.208l0,0-.093.006a10.113,10.113,0,0,0-1.291.166Zm1.474-2.73-3.253,2.087a10.6,10.6,0,0,1,2.652-.592l.6-1.495Zm2.124-2.334-.33.82a9.713,9.713,0,0,1,.649-.761Zm-.453-.082-.017.059.075-.048ZM35.36,39.753a1.672,1.672,0,0,1-1.105-.558,8.4,8.4,0,0,0-2.811-1.427l-.489-.17.309-1.1.35-.053a13.031,13.031,0,0,1,2.676-.173,2.172,2.172,0,0,1,1.814.839,1.92,1.92,0,0,1,.289,1.487,1.468,1.468,0,0,1-.529,1.005.929.929,0,0,1-.5.147ZM33.4,37.368A6.411,6.411,0,0,1,35,38.392a1.8,1.8,0,0,0,.254.206c.018-.056.038-.131.06-.231a.836.836,0,0,0-.14-.659c-.119-.185-.458-.3-.956-.335-.249-.015-.528-.016-.827,0Z"/>
      <path id="形状-5" data-name="形状" class="cls-1" d="M53.335,23.218l.025-.332a11.635,11.635,0,0,1,2.974-.17,1.645,1.645,0,0,1,1.348.715,1.23,1.23,0,0,1,.166,1,1.054,1.054,0,0,1-.318.52q-.337.216-1.247-.465a6.888,6.888,0,0,0-2.948-1.269Zm10.9,10.705a10.726,10.726,0,0,0,2.956-.105,11.535,11.535,0,0,0,3.641-1.44q2.088-1.181,3.684-2.205,1.176-.754,2.6-1.772t3.343-2.46l.191.3q-1.491,1.376-.914,2.272-3.829,2.35-6.378,3.828a20.981,20.981,0,0,1-4.242,1.983,8.023,8.023,0,0,1-3.226.331,3.718,3.718,0,0,0-1.913.068q-.378.242-.692,1.6a12.612,12.612,0,0,0-.316,2.836l-1.846-.29q.963-2.1,1.936-4.191l-3.925-6.12-.672.431a10.158,10.158,0,0,0-1.873,1.517L55.4,30.32l3.192-2.048.4-1.414,1.846.29L60.5,28.1l3.734,5.821Zm3.354-15.106q-2.106-3.283-2.908-4.349l2.459-.418-.289,1.028,1.915,2.985,1.848-1.185.47-1.671,2.422.448-4.453,2.856,5.169,8.06a2.27,2.27,0,0,1,.436,1.511,3.3,3.3,0,0,1-.74,1.528q-1.269-.87-3.957.116l-.191-.3q2.412-1.231,2.916-1.554t.121-.92l-4.93-7.687-5.8,3.718a8.226,8.226,0,0,0-1.453,1.248l-1.187-.187ZM62.3,24.629l.024-.332a16.112,16.112,0,0,1,3.6.164,2.064,2.064,0,0,1,1.462.8,1.337,1.337,0,0,1,.166,1,.986.986,0,0,1-.295.558q-.337.216-1.294-.539A10.978,10.978,0,0,0,62.3,24.629Z"/>
      <path id="形状-6" data-name="形状" class="cls-1" d="M63.516,39.8l-3.2-.5.3-.659q.9-1.961,1.81-3.919l-3.465-5.4-.21.134a9.661,9.661,0,0,0-1.772,1.434l-.2.208-2.9-.456,4.234-2.716.473-1.683,2.981.469-.468,1.323,3.444,5.37a10.372,10.372,0,0,0,2.547-.126A11.063,11.063,0,0,0,70.559,31.9c1.129-.639,2.16-1.249,3.073-1.819l-.027-.019c-.682-.467-1.869-.4-3.458.178l-.414.152-.757-1.18.54-.276c1.973-1.007,2.649-1.386,2.869-1.527l.027-.019a.626.626,0,0,0-.072-.142l-4.633-7.224-5.334,3.421a5.308,5.308,0,0,0-.437.316l.371-.013c.419-.015.816-.022,1.18-.022a12.738,12.738,0,0,1,2.557.2A2.522,2.522,0,0,1,67.876,25a1.87,1.87,0,0,1,.211,1.407,1.424,1.424,0,0,1-.527.871.869.869,0,0,1-.477.135,2.532,2.532,0,0,1-1.448-.7,10.513,10.513,0,0,0-3.478-1.556l-.435-.12.086-1.173a9.809,9.809,0,0,0-.786.744l-.2.208-2.407-.379a1.315,1.315,0,0,1-.051.18,1.5,1.5,0,0,1-.538.795.9.9,0,0,1-.492.139,2.48,2.48,0,0,1-1.38-.626,6.385,6.385,0,0,0-2.725-1.17l-.478-.094.093-1.254.432-.066a16.023,16.023,0,0,1,2.353-.215,6.345,6.345,0,0,1,.772.043,2.156,2.156,0,0,1,1.764,1,2.2,2.2,0,0,1,.276.86l8.386-5.379c-1.225-1.9-2.1-3.2-2.588-3.854l-.541-.72,4.2-.715-.457,1.627L68.928,17.3l1.21-.776.549-1.952,4.281.792-5.159,3.309,4.873,7.6a2.806,2.806,0,0,1,.518,1.879,3.236,3.236,0,0,1-.453,1.213c.636-.42,1.321-.893,2.046-1.411.943-.673,2.064-1.5,3.333-2.452l.473-.356.76,1.185-.339.313c-.43.4-1.109,1.128-.825,1.571l.3.472-.478.293c-2.56,1.571-4.71,2.861-6.39,3.835a21.588,21.588,0,0,1-4.359,2.034,8.614,8.614,0,0,1-3.446.351A9.4,9.4,0,0,0,64.8,35.13a1.661,1.661,0,0,0-.533.054,3.086,3.086,0,0,0-.455,1.263,12.127,12.127,0,0,0-.3,2.713V39.8Zm-1.593-1.363.509.08a13.306,13.306,0,0,1,.16-1.531l-.669,1.451ZM59.3,27.8l4.223,6.584a1.054,1.054,0,0,1,.157-.124q.041-.026.086-.05l-3.872-6.037.206-.584-.711-.112L59.3,27.8Zm19.747-.123q-.8.592-1.613,1.172c-.945.677-1.827,1.278-2.621,1.787-1.066.684-2.315,1.431-3.71,2.221q-.455.258-.924.491a26.772,26.772,0,0,0,2.9-1.484c1.585-.918,3.592-2.121,5.971-3.578a1.518,1.518,0,0,1,0-.609Zm-6.614.975a3.439,3.439,0,0,1,1.316.244,2.266,2.266,0,0,0,.363-.887,1.765,1.765,0,0,0-.354-1.143l-7.5-11.7.121-.43-.736.125c.573.824,1.38,2.049,2.412,3.658l5.217,8.135a1.117,1.117,0,0,1-.287,1.679C72.863,28.409,72.681,28.514,72.431,28.652Zm-7.846-3.8a9.05,9.05,0,0,1,1.714.986l.012.009a3.161,3.161,0,0,0,.664.433c.016-.042.035-.1.055-.169a.828.828,0,0,0-.123-.593c-.051-.1-.262-.341-1.093-.521a8.3,8.3,0,0,0-1.229-.146Zm-9.342-1.616a6.574,6.574,0,0,1,1.377.816,2.585,2.585,0,0,0,.631.379,1.753,1.753,0,0,0,.081-.191.78.78,0,0,0-.135-.55c-.15-.277-.59-.387-.932-.43a6.253,6.253,0,0,0-1.022-.025Zm16.23-7.4-.159.567.722-.463-.563-.1Z"/>
    </g>
  </g>
</svg>
