<svg xmlns="http://www.w3.org/2000/svg" width="89.583" height="78.432" viewBox="0 0 89.583 78.432">
  <defs>
    <style>
      .cls-1 {
        fill: #edf4ff;
      }
    </style>
  </defs>
  <g id="jggl_examine_icon" transform="translate(-0.076 -0.012)">
    <g id="待审核">
      <path id="形状" class="cls-1" d="M89.036,26.578,75.425,5.116a4.035,4.035,0,0,0-5.549-1.247L1.943,46.844a4.027,4.027,0,0,0-1.25,5.539L14.3,73.848a4.033,4.033,0,0,0,5.544,1.242L87.784,32.118A4.012,4.012,0,0,0,89.036,26.578Zm-2.711,3.233L18.39,72.789a1.278,1.278,0,0,1-1.766-.4L3.013,50.927a1.28,1.28,0,0,1,.4-1.769L71.35,6.183a1.277,1.277,0,0,1,1.763.4L86.73,28.048A1.3,1.3,0,0,1,86.325,29.811ZM27.763,16.192,28.891,18.9l1.462-2.539,2.92-.236-1.967-2.176.67-2.846-2.669,1.2L26.8,10.782l.318,2.915-2.224,1.9,2.87.6Zm17.3-8.055-1.4-2.576L42.469,8.243l-2.886.551,2.179,1.954-.376,2.9,2.542-1.469,2.651,1.258-.612-2.87,2.009-2.129Zm26.372,43.15L69.11,49.5l-.01,2.926-2.425,1.645,2.793.921.823,2.809,1.732-2.364,2.931.082-1.721-2.377.993-2.746-2.793.89ZM61.953,62.952l-1.107-2.714-1.486,2.529-2.918.212,1.949,2.187L57.7,68.009l2.685-1.173,2.5,1.551-.294-2.918,2.224-1.893-2.857-.625ZM44.589,70.885l1.39,2.587L47.192,70.8l2.886-.516-2.166-1.975.4-2.9-2.552,1.443L43.12,65.571l.588,2.864-2.039,2.121,2.92.328ZM18.578,27.532l2.309,1.814.034-2.928,2.436-1.636-2.778-.94-.8-2.822-1.753,2.348-2.931-.106,1.7,2.388L15.779,28.4l2.8-.871ZM8.265,40.174A36.49,36.49,0,0,1,61.2,6.678l2.679-1.695A39.264,39.264,0,0,0,6.449,30.635a38.894,38.894,0,0,0-.871,11.232Zm72.952-1.9A36.477,36.477,0,0,1,28.3,71.774l-2.685,1.7A39.232,39.232,0,0,0,83.034,47.823,38.845,38.845,0,0,0,83.9,36.586ZM33.321,21.2A21.236,21.236,0,0,1,43.4,17.944l4.146-2.621a24.1,24.1,0,0,0-25.635,16.22l4.144-2.621A21.2,21.2,0,0,1,33.321,21.2ZM56.173,57.249A21.173,21.173,0,0,1,46.1,60.511l-4.144,2.621A24.1,24.1,0,0,0,67.582,46.91l-4.141,2.627A21.246,21.246,0,0,1,56.173,57.249Z"/>
      <path id="形状-2" data-name="形状" class="cls-1" d="M12.64,47.95l2.386-.161q-.54.453-.9,3.213a18.674,18.674,0,0,1-1.59,5.655l-.312-.116a24.286,24.286,0,0,0,.75-4.747,12.38,12.38,0,0,0-.331-3.843Zm4.643,7.239,6.223,9.7-.973,1.256Q21.466,64.3,20.51,62.809l-3.59-5.6a22.408,22.408,0,0,1-1.458,4.937l-.312-.116A27.7,27.7,0,0,0,16,55.591a20.167,20.167,0,0,0-.282-4.137l2.3-.108q-.492.528-.737,3.843Zm4.172-8.469q-1.244-1.94-2.142-3.155l2.495-.547-.421,1.007,1.245,1.94,2.6-1.67.4-1.414,2.242.353-4.957,3.179L24.833,49.4l4.2-2.694.434-1.542,2.374.373L21,52.486A10.153,10.153,0,0,0,19.131,54l-1.187-.187,5.713-3.664-1.915-2.985-2.52,1.616-1,.85-1.055-.166ZM29.112,59.4a18.353,18.353,0,0,0,2.946-1.415.69.69,0,0,0,.223-1.039L28.931,51.72,22.21,56.031l-.66.634L20.494,56.5l8.149-5.227q-.526-.82-1.52-2.185l2.459-.418-.469.933.622.97,1.176-.754.434-1.542,2.374.373-3.7,2.371,3.542,5.523q.862,1.343-.52,3.072-.826-.734-3.694.157l-.239-.373ZM23.733,56a10.155,10.155,0,0,1,3.231.139,1.821,1.821,0,0,1,.821.633,1.575,1.575,0,0,1,.191.667,1.016,1.016,0,0,1-.259.8q-.306.354-1.181-.454a8.082,8.082,0,0,0-2.96-1.472Z"/>
      <path id="形状-3" data-name="形状" class="cls-1" d="M22.466,67.13l-.409-.708c-.713-1.234-1.389-2.35-2.009-3.316l-2.859-4.458a23.528,23.528,0,0,1-1.219,3.715l-.2.485L14.5,62.378l.115-.474a27.283,27.283,0,0,0,.833-6.314,19.85,19.85,0,0,0-.267-4.008l-.156-.646,4.314-.2-.92.986a3.3,3.3,0,0,0-.365,1.371L22.9,49.987l-1.321-2.06-2.026,1.3-1.16.99-2.733-.43,5.038-3.231c-.689-1.06-1.3-1.955-1.824-2.664l-.5-.682,4.354-.954L22,43.972l.792,1.235,1.966-1.261.473-1.683,4.152.653-5.711,3.663L25,48.639l3.562-2.285.509-1.811,4.284.674-4.781,3.066,1.987-.338-.816,1.624.156.244.538-.345.509-1.811,4.284.674-4.451,2.855,3.245,5.06c.49.763.791,2.027-.553,3.711l-.361.453-.433-.385a1.251,1.251,0,0,0-.8-.193,8.559,8.559,0,0,0-2.368.464l-.4.124L28.3,59.143l.605-.252a17.02,17.02,0,0,0,2.834-1.353c.187-.137.169-.164.084-.3l-3.054-4.762-4.609,2.956c.384-.014.734-.02,1.044-.02a5.062,5.062,0,0,1,1.987.224,2.359,2.359,0,0,1,1.06.838,2.074,2.074,0,0,1,.275.9,1.573,1.573,0,0,1-.389,1.216.854.854,0,0,1-.655.3,2.066,2.066,0,0,1-1.314-.708,7.625,7.625,0,0,0-2.754-1.352l-.613-.2.248-.493-.493.316-.818.786-2.753-.433,8.9-5.707c-.3-.446-.683-.988-1.156-1.64L21.3,52.949a9.653,9.653,0,0,0-1.772,1.434l-.2.208L17.9,54.367q-.03.315-.059.68l6.333,9.874L22.466,67.13ZM16.617,55.722l4.355,6.79c.508.792,1.053,1.682,1.624,2.654l.237-.305-6.112-9.529.013-.183c.025-.346.052-.663.081-.953l-.285-.045q.019.659.018,1.441,0,.293-.009.585l.078-.455Zm15.265,3.012a2.84,2.84,0,0,1,1.008.162c.69-1.044.461-1.667.212-2.056l-4.621-7.2.122-.242-.519.088c.424.6.758,1.083,1.012,1.48l3.647,5.687a1.228,1.228,0,0,1-.362,1.779,4.734,4.734,0,0,1-.5.307ZM25.6,56.519a5.562,5.562,0,0,1,1.31.863,2.629,2.629,0,0,0,.478.371.449.449,0,0,0,.042-.255,1.052,1.052,0,0,0-.107-.427,1.333,1.333,0,0,0-.583-.428,3.652,3.652,0,0,0-1.14-.124Zm-9.229-4.545a19.672,19.672,0,0,1,.157,2.1l.321-.206a13.382,13.382,0,0,1,.319-1.931Zm5.843-5.087,1.9,2.956.251-.161-3.592-5.6.125-.3-.646.142c.5.7,1.052,1.537,1.661,2.486l.306.477Zm9.528,2.009-.127.451.59-.378Zm-1.878-3.114-.127.451.59-.379ZM26.03,43.5l-.091.323.422-.271ZM12.821,57.35l-1.254-.467.121-.478a23.849,23.849,0,0,0,.734-4.639,11.9,11.9,0,0,0-.312-3.671l-.177-.648,4.739-.32L15.379,48.21c-.039.034-.387.4-.711,2.858a19.307,19.307,0,0,1-1.635,5.815l-.212.468Zm.5-8.9a13.328,13.328,0,0,1,.217,2.8q.02-.157.038-.313V50.93a14.61,14.61,0,0,1,.5-2.526l-.76.051Z"/>
      <path id="形状-4" data-name="形状" class="cls-1" d="M48.334,32.429l-.057-2.492L34.332,38.882a4.515,4.515,0,0,1,.611.767,1.384,1.384,0,0,1,.214,1.074,1.283,1.283,0,0,1-.691.864c-.381.209-.618.238-.714.089a1.27,1.27,0,0,1-.095-.887,5.929,5.929,0,0,0-.608-2.981l.336-.215.658.842,13.862-8.891.277-1.231,2.29.427q-1.26.808-1.792,3.677l-.348.012ZM42.691,38.05q-1.052-1.641-1.9-2.782l2.459-.418-.421,1.007.957,1.493L48.4,34.386l.109-1.124,1.834.087-.3.825q3.207,5,3.961,5.991l-.841,1.277-.622-.97-4.789,3.071q1.963,3.061,2.717,4.051l-.925,1.33q-.827-1.471-2.884-4.681l-4.7,3.017.383.6-.937,1.127q-.97-1.693-2.4-3.934T36.475,41.3l1.511-.232,4.7-3.017ZM37.6,32.15l.156-.311a6.127,6.127,0,0,1,2.3-.107,1.513,1.513,0,0,1,.947.551,1.432,1.432,0,0,1,.185.935c-.037.376-.111.6-.223.669q-.252.162-.851-.4A6.7,6.7,0,0,0,37.6,32.15Zm.671,9.365L39.805,43.9l4.7-3.017L42.978,38.5Zm1.819,2.836,1.579,2.463,4.7-3.017L44.8,41.334l-4.7,3.017ZM44.07,37.8,45.6,40.185l4.789-3.071-1.532-2.388L44.07,37.8Zm1.819,2.836,1.58,2.463,4.789-3.071-1.58-2.463Z"/>
      <path id="形状-5" data-name="形状" class="cls-1" d="M49.5,49.958l-.43-.764c-.511-.91-1.375-2.318-2.571-4.19l-3.779,2.424.3.473-1.7,2.046-.393-.687c-.649-1.134-1.453-2.449-2.391-3.911s-1.781-2.715-2.509-3.728l-.4-.556a1.872,1.872,0,0,1-.9,1.006,1.653,1.653,0,0,1-.783.25.761.761,0,0,1-.657-.346,1.754,1.754,0,0,1-.177-1.259,5.453,5.453,0,0,0-.567-2.686l-.187-.429,1.151-.738.658.842,5.73-3.675q-.08-.069-.157-.142a6.194,6.194,0,0,0-2.307-1.212l-.611-.2.568-1.13.271-.048a6.434,6.434,0,0,1,2.533-.1,2,2,0,0,1,1.275.788,1.814,1.814,0,0,1,.275.856L47.42,29.2l.344-1.528,4.173.779L50.77,29.2c-.7.451-1.225,1.566-1.548,3.315l-.042.227,1.939.092-.463,1.271c2.038,3.175,3.313,5.1,3.789,5.725l.236.31L53.16,42.45l-.782-1.219-3.863,2.478c1.139,1.767,1.944,2.961,2.394,3.552l.242.318L49.5,49.958ZM37.436,41.708c.613.881,1.292,1.9,2.026,3.047.765,1.193,1.443,2.291,2.023,3.275l.177-.213-3.946-6.152-.28.043Zm9.7,2.254c1.054,1.643,1.876,2.964,2.454,3.939l.207-.3c-.535-.741-1.358-1.979-2.5-3.764l-5.086-7.929.147-.352-.6.1c.435.616.9,1.312,1.393,2.077l3.992,6.224Zm-6.284.555.986,1.538,3.78-2.424-.986-1.538Zm-1.819-2.836.938,1.463,3.78-2.424-.938-1.463Zm7.616-.882.986,1.538L51.5,39.858l-.986-1.538Zm-12.5-1.3a4.766,4.766,0,0,1,.053,1.355l0,.025a1.777,1.777,0,0,0-.025.242l.026-.014a.73.73,0,0,0,.419-.5.837.837,0,0,0-.14-.659,4.335,4.335,0,0,0-.329-.449ZM35.162,39q.128.17.243.35a1.921,1.921,0,0,1,.289,1.487l-.006.025,2.1-.322,4.142-2.657c-.554-.849-1.071-1.6-1.542-2.235L35.162,39ZM53.016,40.19l.156.244.166-.252c-.623-.875-1.858-2.754-3.755-5.711l-.147-.229.138-.379-.566-.027-.015.15.03-.019,3.992,6.224Zm-8.187-2.227.938,1.463,3.864-2.478-.938-1.463-3.864,2.478ZM43.444,35.8l.505.787,3.934-2.523.1-1.076L47.8,33l-.047-2.07-5.512,3.535,1.9-.323L43.444,35.8ZM39.22,32.216a5.7,5.7,0,0,1,1.272.866c.056.053.105.1.149.133l.005-.05a.9.9,0,0,0-.1-.585c-.036-.057-.17-.2-.619-.315a2.683,2.683,0,0,0-.707-.048Zm9.586-3.229.022.988a5,5,0,0,1,.509-.889Zm-.2-.038-.033.147.185-.119L48.6,28.95Z"/>
      <path id="形状-6" data-name="形状" class="cls-1" d="M64.257,33.592q.623.971,2.382,3.528l-.961,1.459q-2.835-4.606-5.755-9.158a21.63,21.63,0,0,1-.165,6.952l-.312-.116a29.5,29.5,0,0,0-1.809-10.215l-1.848,1.185-.66.634L54.072,27.7l3.36-2.155q-1.579-2.463-3.052-4.573l2.459-.418L56.5,21.5l2.106,3.284,1.092-.7.4-1.414,2.242.353L58.9,25.234l1.2,1.866a9.143,9.143,0,0,1,2.873-.42,1.385,1.385,0,0,1,1.012.562,2.146,2.146,0,0,1,.311.854c.047.322.042.5-.013.535q-.337.216-1.283-.336a7.9,7.9,0,0,0-2.661-.821l3.925,6.119ZM65.515,25.2l4.032-2.586a19.366,19.366,0,0,0,.1-1.963,16.467,16.467,0,0,0-.159-2l2.362.17-.649.837a28.1,28.1,0,0,1-4.371,13.336l-.275-.245a27.131,27.131,0,0,0,2.975-9.6q-3.421,2.616-3.662,3.718l-1.665-.933a3.573,3.573,0,0,0,.939-2.6,14.387,14.387,0,0,0-.223-3.86L62.235,21.2l-.66.634-1.055-.166,9.241-5.927.434-1.542,2.374.373-7.309,4.688,2-.021-.613.709A24.352,24.352,0,0,1,65.515,25.2Zm-3.262-8.967.156-.311a8.209,8.209,0,0,1,2.764-.035,1.445,1.445,0,0,1,.617.5A1.371,1.371,0,0,1,66,17.36q-.08.525-.247.632-.252.162-.9-.477A7.1,7.1,0,0,0,62.254,16.234Zm10.869,4.93,2.314.1-.612.709a35.866,35.866,0,0,1-1.182,5.182,21.4,21.4,0,0,1,4.869-.174,2,2,0,0,1,1.306.742,1.6,1.6,0,0,1,.173.732q.028.508-.139.615-.337.216-1.462-.431a11.908,11.908,0,0,0-4.891-.971,25.592,25.592,0,0,1-5.312,9.095l-.275-.245a24.725,24.725,0,0,0,5.213-15.351Z"/>
      <path id="形状-7" data-name="形状" class="cls-1" d="M65.661,39.6l-.452-.735q-2.25-3.656-4.555-7.278a21.147,21.147,0,0,1-.359,4.89l-.125.635-1.281-.477.005-.387a28.673,28.673,0,0,0-1.553-9.366l-1.213.778-.818.786-2.753-.433,4.114-2.639c-.929-1.437-1.85-2.812-2.743-4.094l-.495-.71,4.234-.72-.559,1.582,1.664,2.595.454-.291.463-1.645-.685-.108,5.836-3.743a4.1,4.1,0,0,1-.356-.315A6.621,6.621,0,0,0,62.1,16.763l-.639-.182.59-1.174.3-.03c.855-.086,1.535-.13,2.022-.13a2.49,2.49,0,0,1,1.032.145,1.986,1.986,0,0,1,.845.7,1.906,1.906,0,0,1,.313,1.043l2.723-1.746.509-1.811,4.284.674-6.918,4.437,1.31-.013-1.3,1.5a25.169,25.169,0,0,1-.707,3.762L69.025,22.3c.055-.624.081-1.175.077-1.642a16.019,16.019,0,0,0-.155-1.937l-.088-.668,4.057.293-1.177,1.52a28.7,28.7,0,0,1-4.445,13.43l-.349.53-1.076-.956.208-.383a26.009,26.009,0,0,0,2.708-8.042c-1.979,1.625-2.325,2.308-2.376,2.543l-.158.725-3.038-1.7.658-.508c.273-.211.62-.765.727-2.209a14.139,14.139,0,0,0-.081-2.906L62.577,21.63l-.784.753,2.061.324-4.2,2.693.689,1.074a11.091,11.091,0,0,1,2.325-.363,2.477,2.477,0,0,1,.381.026,1.913,1.913,0,0,1,1.391.808,2.7,2.7,0,0,1,.392,1.07c.049.333.122.834-.26,1.078a.972.972,0,0,1-.534.148,2.735,2.735,0,0,1-1.3-.462,8.671,8.671,0,0,0-1.23-.5L64.719,33.3c.418.652,1.216,1.834,2.372,3.513l.21.3L65.661,39.6Zm-6.6-12.533,1.318,2.055q2.69,4.194,5.308,8.433l.284-.43c-1.05-1.528-1.783-2.617-2.182-3.238L55.9,21.573l.115-.325-.686.117q1.311,1.912,2.562,3.865l.038-.024.065.185.2.316-.075.048.037.105a33.89,33.89,0,0,1,1.363,5.04q-.05-.706-.14-1.409l-.311-2.422Zm2.89.2a9.907,9.907,0,0,1,1.28.529l.034.018a3.931,3.931,0,0,0,.452.232,1.531,1.531,0,0,0-.207-.513.886.886,0,0,0-.636-.316,1.433,1.433,0,0,0-.21-.013,5.055,5.055,0,0,0-.712.063Zm3.406-1.32.253.142a4.773,4.773,0,0,1,.425-.576Zm4.885-4.039-.167,1.306q-.07.551-.159,1.1a32.373,32.373,0,0,0,.738-4.71l.014-.162.12-.155-.676-.049c.055.529.083.993.085,1.406,0,.394-.014.842-.049,1.337l.095-.073ZM60.5,23.29l-.091.323.422-.271ZM65.542,19.8a14.849,14.849,0,0,1,.195,2.464q.242-1.18.366-2.379l.009-.091-.571.006Zm-1.475-3.452a6.391,6.391,0,0,1,1.137.74l.037.034c.082.081.152.144.209.193l.006-.041a.819.819,0,0,0-.128-.593.929.929,0,0,0-.383-.3,2.228,2.228,0,0,0-.569-.043q-.155,0-.311.005Zm6.525-1.537-.127.451.59-.379-.463-.073ZM68.229,37.533l-1.059-.94.3-.4a24.3,24.3,0,0,0,5.105-15.016l-.009-.581,4.032.167-1.253,1.451a36.861,36.861,0,0,1-.943,4.317c1.291-.117,2.312-.177,3.042-.177a5.74,5.74,0,0,1,1.19.092,2.49,2.49,0,0,1,1.648.982,2.052,2.052,0,0,1,.259.995,1.2,1.2,0,0,1-.391,1.112.935.935,0,0,1-.514.141,3.3,3.3,0,0,1-1.5-.55,10.919,10.919,0,0,0-4.245-.89,26.251,26.251,0,0,1-5.291,8.9l-.365.405Zm8.414-10.065a8.544,8.544,0,0,1,1.993.676l.027.015a4.264,4.264,0,0,0,.781.372c0-.015,0-.032,0-.049a1.128,1.128,0,0,0-.087-.465,1.547,1.547,0,0,0-.966-.5,4.686,4.686,0,0,0-.946-.064q-.352,0-.8.019Zm-2.968-5.731a23.849,23.849,0,0,1-.963,6.507q.086-.231.167-.465h-.005l.245-.792a35.495,35.495,0,0,0,1.164-5.1l.019-.123-.626-.026Z"/>
    </g>
  </g>
</svg>
