<svg id="phone_icon" xmlns="http://www.w3.org/2000/svg" width="16" height="16" viewBox="0 0 16 16">
  <defs>
    <style>
      .cls-1 {
        fill: none;
      }

      .cls-2 {
        fill: #0050b3;
      }

      .cls-3 {
        fill: #22a2ff;
      }
    </style>
  </defs>
  <path id="路径_574" data-name="路径 574" class="cls-1" d="M0,0H16V16H0Z"/>
  <path id="路径_575" data-name="路径 575" class="cls-2" d="M14.96,11.917v2.349a.664.664,0,0,1-.618.663c-.29.02-.528.031-.711.031A10.631,10.631,0,0,1,3,4.329q0-.275.031-.711A.664.664,0,0,1,3.694,3H6.043a.332.332,0,0,1,.331.3c.015.153.029.274.043.367a9.237,9.237,0,0,0,.8,2.658.3.3,0,0,1-.1.377L5.688,7.726a8.669,8.669,0,0,0,4.547,4.547l1.023-1.431a.307.307,0,0,1,.381-.1,9.237,9.237,0,0,0,2.658.8c.092.013.214.028.365.043a.332.332,0,0,1,.3.331Z" transform="translate(-1.671 -0.289)"/>
  <path id="路径_577" data-name="路径 577" class="cls-3" d="M4.213,1.883A2.825,2.825,0,0,1,6.74,3.445L5.9,3.866a1.883,1.883,0,0,0-3.37,0l-.842-.421A2.825,2.825,0,0,1,4.213,1.883ZM4.213,0A4.709,4.709,0,0,1,8.425,2.6l-.843.421a3.768,3.768,0,0,0-6.74,0L0,2.6A4.708,4.708,0,0,1,4.213,0Z" transform="translate(8.445 1.106) rotate(45)"/>
</svg>
