<svg xmlns="http://www.w3.org/2000/svg" xmlns:xlink="http://www.w3.org/1999/xlink" width="16" height="16" viewBox="0 0 16 16">
  <defs>
    <style>
      .cls-1 {
        fill: #0050b3;
      }

      .cls-2 {
        clip-path: url(#clip-path);
      }
    </style>
    <clipPath id="clip-path">
      <rect id="矩形_2833" data-name="矩形 2833" class="cls-1" width="16" height="16" transform="translate(952 532.48)"/>
    </clipPath>
  </defs>
  <g id="sjtj_icon_screen_s" transform="translate(-952 -532.48)">
    <g id="组_4065" data-name="组 4065">
      <g id="组_4064" data-name="组 4064" class="cls-2">
        <path id="路径_341" data-name="路径 341" class="cls-1" d="M967.85,533.386a1.513,1.513,0,0,0-1.373-.887H953.463a1.472,1.472,0,0,0-1.047,2.494l.046.055,4.805,3.846a.416.416,0,0,1,.162.322v6.6a1.468,1.468,0,0,0,.78,1.31l2.081,1.157a1.522,1.522,0,0,0,.722.178h0a1.49,1.49,0,0,0,1.069-.442,1.461,1.461,0,0,0,.422-1.055v-7.7a.424.424,0,0,1,.149-.32l4.874-3.891.057-.057a1.458,1.458,0,0,0,.266-1.6Zm-1.051.842-.006.009-4.814,3.869a1.486,1.486,0,0,0-.553,1.163v7.693a.422.422,0,0,1-.207.362.458.458,0,0,1-.206.048.405.405,0,0,1-.2-.05l-2.079-1.136a.393.393,0,0,1-.207-.362v-6.6a1.484,1.484,0,0,0-.563-1.161l-4.648-3.706-.163-.133a.4.4,0,0,1-.03-.423.389.389,0,0,1,.365-.23h12.989a.409.409,0,0,1,.323.655Zm0,0"/>
      </g>
    </g>
    <path id="路径_342" data-name="路径 342" class="cls-1" d="M964.053,545.452a.538.538,0,0,1,0-1.074h3.417a.524.524,0,0,1,.51.536.519.519,0,0,1-.5.537h-3.423Zm0-2.406a.538.538,0,0,1,0-1.074h3.417a.525.525,0,0,1,.51.537.513.513,0,0,1-.494.536h-3.433Zm0-2.406a.537.537,0,0,1,0-1.073h3.417a.525.525,0,0,1,.51.536.513.513,0,0,1-.494.536h-3.433Zm0,0"/>
  </g>
</svg>
