<svg xmlns="http://www.w3.org/2000/svg" xmlns:xlink="http://www.w3.org/1999/xlink" width="50" height="50" viewBox="0 0 50 50">
  <defs>
    <style>
      .cls-1, .cls-3 {
        fill: none;
      }

      .cls-1 {
        stroke: #337fdd;
        opacity: 0.26;
      }

      .cls-2 {
        fill: #1565c9;
      }

      .cls-4 {
        fill: #fff;
      }

      .cls-5 {
        stroke: none;
      }

      .cls-6 {
        filter: url(#椭圆_27);
      }
    </style>
    <filter id="椭圆_27" x="0" y="0" width="50" height="50" filterUnits="userSpaceOnUse">
      <feOffset dy="3" input="SourceAlpha"/>
      <feGaussianBlur stdDeviation="3" result="blur"/>
      <feFlood flood-opacity="0.161"/>
      <feComposite operator="in" in2="blur"/>
      <feComposite in="SourceGraphic"/>
    </filter>
  </defs>
  <g id="Nav_user_img" transform="translate(-1420 -39)">
    <g class="cls-6" transform="matrix(1, 0, 0, 1, 1420, 39)">
      <g id="椭圆_27-2" data-name="椭圆 27" class="cls-1" transform="translate(9 6)">
        <circle class="cls-5" cx="16" cy="16" r="16"/>
        <circle class="cls-3" cx="16" cy="16" r="15.5"/>
      </g>
    </g>
    <circle id="椭圆_28" data-name="椭圆 28" class="cls-2" cx="13" cy="13" r="13" transform="translate(1432 48)"/>
    <g id="user-2-fill" transform="translate(1437 52.883)">
      <path id="路径_268" data-name="路径 268" class="cls-3" d="M0,0H16V16H0Z"/>
      <path id="路径_269" data-name="路径 269" class="cls-4" d="M8.83,9.8v4h1.38v-4a5.435,5.435,0,0,1,4.83,5.345H4A5.435,5.435,0,0,1,8.83,9.8Zm.69-.715A4.09,4.09,0,0,1,5.38,5.04,4.09,4.09,0,0,1,9.52,1a4.09,4.09,0,0,1,4.14,4.04A4.09,4.09,0,0,1,9.52,9.08Z" transform="translate(-1.52 -0.38)"/>
    </g>
  </g>
</svg>
