<svg xmlns="http://www.w3.org/2000/svg" width="158.362" height="32.038" viewBox="0 0 158.362 32.038">
  <defs>
    <style>
      .cls-1 {
        fill: #fff;
      }
    </style>
  </defs>
  <g id="Nav_logo" transform="translate(411.236 197.53)">
    <g id="_x32_" transform="translate(-374.266 -177.627)">
      <g id="组_1" data-name="组 1" transform="translate(0 0.196)">
        <path id="路径_1" data-name="路径 1" class="cls-1" d="M1128.063,957.7a2.553,2.553,0,0,1-1.011.174,1.751,1.751,0,0,1-1.892-1.853,1.865,1.865,0,0,1,2-1.924,2.137,2.137,0,0,1,.909.163l-.12.386a1.868,1.868,0,0,0-.773-.152,1.391,1.391,0,0,0-1.494,1.511,1.36,1.36,0,0,0,1.471,1.473,2.063,2.063,0,0,0,.807-.152Z" transform="translate(-1125.16 -954.1)"/>
      </g>
      <g id="组_2" data-name="组 2" transform="translate(3.523 0.255)">
        <path id="路径_2" data-name="路径 2" class="cls-1" d="M1220.44,955.71h2.062v.4h-1.568v1.218h1.449v.391h-1.449v1.658h-.494Z" transform="translate(-1220.44 -955.71)"/>
      </g>
      <g id="组_3" data-name="组 3" transform="translate(6.29 0.255)">
        <path id="路径_3" data-name="路径 3" class="cls-1" d="M1297.263,957.656h-1.489v1.321h1.659v.4h-2.153V955.71h2.068v.4h-1.573v1.158h1.489Z" transform="translate(-1295.28 -955.71)"/>
      </g>
      <g id="组_4" data-name="组 4" transform="translate(8.739 0.255)">
        <path id="路径_4" data-name="路径 4" class="cls-1" d="M1362.685,956.122h-1.165v-.4h2.835v.4h-1.17v3.261h-.5Z" transform="translate(-1361.52 -955.72)"/>
      </g>
      <g id="组_5" data-name="组 5" transform="translate(11.773 0.195)">
        <path id="路径_5" data-name="路径 5" class="cls-1" d="M1443.714,957.237a1.809,1.809,0,0,0,.886.239c.506,0,.8-.255.8-.625,0-.342-.2-.538-.721-.728-.625-.212-1.011-.522-1.011-1.038,0-.57.494-.995,1.239-.995a1.811,1.811,0,0,1,.847.179l-.136.386a1.58,1.58,0,0,0-.727-.174c-.523,0-.722.3-.722.549,0,.342.233.511.761.707.648.239.977.538.977,1.076,0,.565-.437,1.054-1.341,1.054a2.047,2.047,0,0,1-.977-.234Z" transform="translate(-1443.59 -954.09)"/>
      </g>
      <g id="组_6" data-name="组 6" transform="translate(15.971 0.255)">
        <path id="路径_6" data-name="路径 6" class="cls-1" d="M1557.644,955.71v3.664h-.494V955.71Z" transform="translate(-1557.15 -955.71)"/>
      </g>
      <g id="组_7" data-name="组 7" transform="translate(17.346 1.229)">
        <path id="路径_7" data-name="路径 7" class="cls-1" d="M1594.353,982.812c0-.272-.006-.495-.023-.712h.443l.029.435h.011a1.02,1.02,0,0,1,.909-.495c.381,0,.972.217.972,1.12v1.571h-.5v-1.517c0-.424-.165-.777-.636-.777a.706.706,0,0,0-.67.489.655.655,0,0,0-.034.223v1.582h-.5v-1.919Z" transform="translate(-1594.33 -982.04)"/>
      </g>
      <g id="组_8" data-name="组 8" transform="translate(20.187)">
        <path id="路径_8" data-name="路径 8" class="cls-1" d="M1671.566,952.729v-2.267h-.386V950.1h.386v-.125a1.205,1.205,0,0,1,.318-.919.982.982,0,0,1,.67-.244,1.2,1.2,0,0,1,.426.076l-.068.37a.777.777,0,0,0-.318-.06c-.426,0-.534.359-.534.761v.141h.665v.364h-.665v2.267Z" transform="translate(-1671.18 -948.81)"/>
      </g>
      <g id="组_9" data-name="组 9" transform="translate(21.909 1.228)">
        <path id="路径_9" data-name="路径 9" class="cls-1" d="M1720.437,983.384a1.315,1.315,0,0,1-1.369,1.4,1.277,1.277,0,0,1-1.318-1.354,1.312,1.312,0,0,1,1.364-1.4A1.271,1.271,0,0,1,1720.437,983.384Zm-2.182.027a.851.851,0,1,0,.847-1.022C1718.511,982.389,1718.255,982.911,1718.255,983.41Z" transform="translate(-1717.75 -982.03)"/>
      </g>
      <g id="组_10" data-name="组 10" transform="translate(25.204 1.228)">
        <path id="路径_10" data-name="路径 10" class="cls-1" d="M1806.893,982.911c0-.31-.006-.576-.023-.821h.437l.017.517h.023a.819.819,0,0,1,.761-.576.575.575,0,0,1,.142.016v.451a.791.791,0,0,0-.17-.016.689.689,0,0,0-.67.614,1.3,1.3,0,0,0-.023.223v1.4h-.494v-1.81Z" transform="translate(-1806.87 -982.03)"/>
      </g>
      <g id="组_11" data-name="组 11" transform="translate(27.085 1.228)">
        <path id="路径_11" data-name="路径 11" class="cls-1" d="M1857.773,982.8c0-.272-.005-.495-.023-.712h.437l.023.424h.017a.954.954,0,0,1,.864-.484.811.811,0,0,1,.778.527h.012a1.089,1.089,0,0,1,.307-.342.965.965,0,0,1,.608-.185c.364,0,.9.228.9,1.142v1.549h-.489v-1.489c0-.506-.193-.81-.6-.81a.643.643,0,0,0-.591.435.752.752,0,0,0-.04.239v1.625h-.489v-1.577c0-.419-.193-.723-.574-.723a.677.677,0,0,0-.619.478.629.629,0,0,0-.04.234v1.587h-.489Z" transform="translate(-1857.75 -982.03)"/>
      </g>
      <g id="组_12" data-name="组 12" transform="translate(31.631 1.228)">
        <path id="路径_12" data-name="路径 12" class="cls-1" d="M1982.438,984.721l-.04-.332h-.017a1.039,1.039,0,0,1-.841.392.768.768,0,0,1-.841-.756c0-.636.591-.984,1.653-.979v-.054a.552.552,0,0,0-.625-.609,1.414,1.414,0,0,0-.716.2l-.114-.315a1.766,1.766,0,0,1,.9-.234.95.95,0,0,1,1.045,1.076v.984a3.565,3.565,0,0,0,.045.631Zm-.074-1.343c-.545-.011-1.165.081-1.165.593a.433.433,0,0,0,.471.457.683.683,0,0,0,.665-.44.485.485,0,0,0,.028-.152Z" transform="translate(-1980.7 -982.03)"/>
      </g>
      <g id="组_13" data-name="组 13" transform="translate(34.25 0.532)">
        <path id="路径_13" data-name="路径 13" class="cls-1" d="M2052.455,963.21v.756h.716v.364h-.716v1.419c0,.326.1.511.375.511a1.158,1.158,0,0,0,.29-.033l.023.359a1.275,1.275,0,0,1-.444.065.709.709,0,0,1-.54-.2.945.945,0,0,1-.193-.685V964.33h-.426v-.364h.426v-.63Z" transform="translate(-2051.54 -963.21)"/>
      </g>
      <g id="组_14" data-name="组 14" transform="translate(36.381 0.25)">
        <path id="路径_14" data-name="路径 14" class="cls-1" d="M2109.8,955.859a.31.31,0,0,1-.619,0,.3.3,0,0,1,.312-.3A.29.29,0,0,1,2109.8,955.859Zm-.557,3.37V956.6h.5v2.631Z" transform="translate(-2109.18 -955.56)"/>
      </g>
      <g id="组_15" data-name="组 15" transform="translate(37.574 1.228)">
        <path id="路径_15" data-name="路径 15" class="cls-1" d="M2144.127,983.384a1.315,1.315,0,0,1-1.369,1.4,1.277,1.277,0,0,1-1.318-1.354,1.312,1.312,0,0,1,1.364-1.4A1.271,1.271,0,0,1,2144.127,983.384Zm-2.181.027a.851.851,0,1,0,.846-1.022C2142.2,982.389,2141.946,982.911,2141.946,983.41Z" transform="translate(-2141.44 -982.03)"/>
      </g>
      <g id="组_16" data-name="组 16" transform="translate(40.869 1.229)">
        <path id="路径_16" data-name="路径 16" class="cls-1" d="M2230.6,982.812c0-.272-.005-.495-.022-.712h.443l.028.435h.011a1.019,1.019,0,0,1,.909-.495c.381,0,.972.217.972,1.12v1.571h-.5v-1.517c0-.424-.165-.777-.636-.777a.705.705,0,0,0-.67.489.655.655,0,0,0-.034.223v1.582h-.5v-1.919Z" transform="translate(-2230.58 -982.04)"/>
      </g>
      <g id="组_17" data-name="组 17" transform="translate(44.596 0.255)">
        <path id="路径_17" data-name="路径 17" class="cls-1" d="M2332.555,956.122h-1.165v-.4h2.835v.4h-1.171v3.261h-.5Z" transform="translate(-2331.39 -955.72)"/>
      </g>
      <g id="组_18" data-name="组 18" transform="translate(47.238 1.228)">
        <path id="路径_18" data-name="路径 18" class="cls-1" d="M2403.317,983.492a.863.863,0,0,0,.943.913,1.882,1.882,0,0,0,.761-.136l.085.342a2.311,2.311,0,0,1-.915.163,1.249,1.249,0,0,1-1.352-1.327,1.3,1.3,0,0,1,1.29-1.419,1.131,1.131,0,0,1,1.136,1.239,1.744,1.744,0,0,1-.017.223h-1.931Zm1.466-.342a.69.69,0,0,0-.693-.777.808.808,0,0,0-.767.777Z" transform="translate(-2402.84 -982.03)"/>
      </g>
      <g id="组_19" data-name="组 19" transform="translate(50.085 1.233)">
        <path id="路径_19" data-name="路径 19" class="cls-1" d="M2482,984.748a1.913,1.913,0,0,1-.79.152,1.278,1.278,0,0,1-1.369-1.343,1.368,1.368,0,0,1,1.477-1.4,1.729,1.729,0,0,1,.693.136l-.114.37a1.2,1.2,0,0,0-.579-.125.99.99,0,0,0-.017,1.979,1.471,1.471,0,0,0,.614-.131Z" transform="translate(-2479.84 -982.16)"/>
      </g>
      <g id="组_20" data-name="组 20" transform="translate(52.829 0.06)">
        <path id="路径_20" data-name="路径 20" class="cls-1" d="M2554.07,950.42h.5v1.642h.011a.91.91,0,0,1,.358-.337,1.061,1.061,0,0,1,.511-.136c.369,0,.96.217.96,1.125v1.565h-.5v-1.511c0-.424-.165-.783-.636-.783a.715.715,0,0,0-.671.478.557.557,0,0,0-.034.228v1.587h-.5Z" transform="translate(-2554.07 -950.42)"/>
      </g>
      <g id="组_21" data-name="组 21" transform="translate(55.96 1.229)">
        <path id="路径_21" data-name="路径 21" class="cls-1" d="M2638.763,982.812c0-.272-.006-.495-.023-.712h.443l.029.435h.011a1.02,1.02,0,0,1,.909-.495c.381,0,.972.217.972,1.12v1.571h-.5v-1.517c0-.424-.165-.777-.636-.777a.706.706,0,0,0-.67.489.649.649,0,0,0-.034.223v1.582h-.5Z" transform="translate(-2638.74 -982.04)"/>
      </g>
      <g id="组_22" data-name="组 22" transform="translate(58.937 1.228)">
        <path id="路径_22" data-name="路径 22" class="cls-1" d="M2721.967,983.384a1.314,1.314,0,0,1-1.369,1.4,1.277,1.277,0,0,1-1.318-1.354,1.312,1.312,0,0,1,1.363-1.4A1.271,1.271,0,0,1,2721.967,983.384Zm-2.182.027a.851.851,0,1,0,.847-1.022C2720.041,982.389,2719.785,982.911,2719.785,983.41Z" transform="translate(-2719.28 -982.03)"/>
      </g>
      <g id="组_23" data-name="组 23" transform="translate(62.256 0.06)">
        <path id="路径_23" data-name="路径 23" class="cls-1" d="M2809.03,950.42h.5v3.86h-.5Z" transform="translate(-2809.03 -950.42)"/>
      </g>
      <g id="组_24" data-name="组 24" transform="translate(63.398 1.228)">
        <path id="路径_24" data-name="路径 24" class="cls-1" d="M2842.607,983.384a1.314,1.314,0,0,1-1.369,1.4,1.277,1.277,0,0,1-1.318-1.354,1.312,1.312,0,0,1,1.363-1.4A1.271,1.271,0,0,1,2842.607,983.384Zm-2.182.027a.851.851,0,1,0,.846-1.022C2840.681,982.389,2840.425,982.911,2840.425,983.41Z" transform="translate(-2839.92 -982.03)"/>
      </g>
      <g id="组_25" data-name="组 25" transform="translate(66.517 1.228)">
        <path id="路径_25" data-name="路径 25" class="cls-1" d="M2926.848,982.09c-.011.19-.023.4-.023.723v1.527a1.472,1.472,0,0,1-.392,1.2,1.5,1.5,0,0,1-1,.315,1.84,1.84,0,0,1-.915-.217l.125-.364a1.6,1.6,0,0,0,.807.206.809.809,0,0,0,.886-.918v-.294h-.011a.994.994,0,0,1-.875.44,1.2,1.2,0,0,1-1.17-1.283,1.285,1.285,0,0,1,1.239-1.4.921.921,0,0,1,.858.457h.011l.023-.4h.438Zm-.517,1.038a.662.662,0,0,0-.028-.217.715.715,0,0,0-.7-.506c-.477,0-.818.386-.818.995,0,.516.272.946.812.946a.728.728,0,0,0,.693-.489.79.79,0,0,0,.04-.256Z" transform="translate(-2924.28 -982.03)"/>
      </g>
      <g id="组_26" data-name="组 26" transform="translate(69.527 1.288)">
        <path id="路径_26" data-name="路径 26" class="cls-1" d="M3006.257,983.64l.6,1.555c.063.174.131.38.177.538h.011c.051-.157.108-.359.176-.549l.545-1.544h.528l-.75,1.876a3.967,3.967,0,0,1-.943,1.647,1.384,1.384,0,0,1-.613.31l-.125-.4a1.339,1.339,0,0,0,.438-.234,1.461,1.461,0,0,0,.42-.533.323.323,0,0,0,.039-.114.4.4,0,0,0-.034-.125l-1.017-2.424h.547Z" transform="translate(-3005.71 -983.64)"/>
      </g>
      <g id="组_27" data-name="组 27" transform="translate(73.721 0.146)">
        <path id="路径_27" data-name="路径 27" class="cls-1" d="M3120.286,952.77a3.481,3.481,0,0,0-.716,2.223,3.557,3.557,0,0,0,.716,2.207h-.392a3.417,3.417,0,0,1-.744-2.207,3.488,3.488,0,0,1,.744-2.223Z" transform="translate(-3119.15 -952.77)"/>
      </g>
      <g id="组_28" data-name="组 28" transform="translate(75.21 0.195)">
        <path id="路径_28" data-name="路径 28" class="cls-1" d="M3159.545,957.237a1.809,1.809,0,0,0,.886.239c.505,0,.8-.255.8-.625,0-.342-.2-.538-.722-.728-.625-.212-1.011-.522-1.011-1.038,0-.57.494-.995,1.239-.995a1.812,1.812,0,0,1,.847.179l-.136.386a1.584,1.584,0,0,0-.727-.174c-.523,0-.722.3-.722.549,0,.342.233.511.761.707.648.239.977.538.977,1.076,0,.565-.437,1.054-1.341,1.054a2.048,2.048,0,0,1-.977-.234Z" transform="translate(-3159.42 -954.09)"/>
      </g>
      <g id="组_29" data-name="组 29" transform="translate(78.187 0.06)">
        <path id="路径_29" data-name="路径 29" class="cls-1" d="M3239.939,950.42h.5v1.642h.011a.909.909,0,0,1,.358-.337,1.061,1.061,0,0,1,.511-.136c.369,0,.96.217.96,1.125v1.565h-.5v-1.511c0-.424-.165-.783-.636-.783a.714.714,0,0,0-.67.478.552.552,0,0,0-.034.228v1.587h-.5Z" transform="translate(-3239.939 -950.42)"/>
      </g>
      <g id="组_30" data-name="组 30" transform="translate(81.125 1.228)">
        <path id="路径_30" data-name="路径 30" class="cls-1" d="M3321.128,984.721l-.04-.332h-.017a1.038,1.038,0,0,1-.841.392.768.768,0,0,1-.841-.756c0-.636.591-.984,1.653-.979v-.054a.552.552,0,0,0-.625-.609,1.414,1.414,0,0,0-.716.2l-.113-.315a1.767,1.767,0,0,1,.9-.234.95.95,0,0,1,1.045,1.076v.984a3.518,3.518,0,0,0,.046.631Zm-.074-1.343c-.545-.011-1.165.081-1.165.593a.433.433,0,0,0,.471.457.682.682,0,0,0,.665-.44.472.472,0,0,0,.029-.152Z" transform="translate(-3319.39 -982.03)"/>
      </g>
      <g id="组_31" data-name="组 31" transform="translate(84.056 1.229)">
        <path id="路径_31" data-name="路径 31" class="cls-1" d="M3398.7,982.812c0-.272-.006-.495-.023-.712h.443l.028.435h.011a1.019,1.019,0,0,1,.909-.495c.38,0,.971.217.971,1.12v1.571h-.5v-1.517c0-.424-.165-.777-.636-.777a.705.705,0,0,0-.67.489.655.655,0,0,0-.034.223v1.582h-.5Z" transform="translate(-3398.68 -982.04)"/>
      </g>
      <g id="组_32" data-name="组 32" transform="translate(87.034 1.228)">
        <path id="路径_32" data-name="路径 32" class="cls-1" d="M3481.787,982.09c-.011.19-.022.4-.022.723v1.527a1.474,1.474,0,0,1-.392,1.2,1.5,1.5,0,0,1-1,.315,1.841,1.841,0,0,1-.915-.217l.125-.364a1.6,1.6,0,0,0,.807.206.809.809,0,0,0,.886-.918v-.294h-.011a.994.994,0,0,1-.875.44,1.2,1.2,0,0,1-1.17-1.283,1.285,1.285,0,0,1,1.239-1.4.921.921,0,0,1,.857.457h.011l.023-.4h.437Zm-.517,1.038a.649.649,0,0,0-.029-.217.715.715,0,0,0-.7-.506c-.477,0-.818.386-.818.995,0,.516.272.946.812.946a.728.728,0,0,0,.693-.489.8.8,0,0,0,.04-.256Z" transform="translate(-3479.22 -982.03)"/>
      </g>
      <g id="组_33" data-name="组 33" transform="translate(90.409 0.06)">
        <path id="路径_33" data-name="路径 33" class="cls-1" d="M3570.5,950.42h.5v1.642h.011a.91.91,0,0,1,.358-.337,1.06,1.06,0,0,1,.511-.136c.369,0,.96.217.96,1.125v1.565h-.5v-1.511c0-.424-.165-.783-.636-.783a.715.715,0,0,0-.671.478.561.561,0,0,0-.034.228v1.587h-.5Z" transform="translate(-3570.5 -950.42)"/>
      </g>
      <g id="组_34" data-name="组 34" transform="translate(93.346 1.228)">
        <path id="路径_34" data-name="路径 34" class="cls-1" d="M3651.7,984.721l-.04-.332h-.017a1.039,1.039,0,0,1-.841.392.768.768,0,0,1-.841-.756c0-.636.591-.984,1.653-.979v-.054a.552.552,0,0,0-.625-.609,1.412,1.412,0,0,0-.716.2l-.114-.315a1.766,1.766,0,0,1,.9-.234.95.95,0,0,1,1.045,1.076v.984a3.566,3.566,0,0,0,.045.631Zm-.074-1.343c-.546-.011-1.165.081-1.165.593a.433.433,0,0,0,.471.457.683.683,0,0,0,.665-.44.485.485,0,0,0,.029-.152Z" transform="translate(-3649.96 -982.03)"/>
      </g>
      <g id="组_35" data-name="组 35" transform="translate(96.239 0.25)">
        <path id="路径_35" data-name="路径 35" class="cls-1" d="M3728.809,955.859a.31.31,0,0,1-.619,0,.3.3,0,0,1,.312-.3A.291.291,0,0,1,3728.809,955.859Zm-.557,3.37V956.6h.5v2.631Z" transform="translate(-3728.19 -955.56)"/>
      </g>
      <g id="组_36" data-name="组 36" transform="translate(97.329 0.146)">
        <path id="路径_36" data-name="路径 36" class="cls-1" d="M3757.68,957.2a3.573,3.573,0,0,0,.716-2.223,3.5,3.5,0,0,0-.716-2.207h.386a3.368,3.368,0,0,1,.744,2.212,3.432,3.432,0,0,1-.744,2.218Z" transform="translate(-3757.68 -952.77)"/>
      </g>
      <g id="组_37" data-name="组 37" transform="translate(99.034 0.196)">
        <path id="路径_37" data-name="路径 37" class="cls-1" d="M3806.693,957.7a2.552,2.552,0,0,1-1.011.174,1.751,1.751,0,0,1-1.892-1.853,1.865,1.865,0,0,1,2-1.924,2.132,2.132,0,0,1,.909.163l-.119.386a1.868,1.868,0,0,0-.773-.152,1.391,1.391,0,0,0-1.494,1.511,1.36,1.36,0,0,0,1.472,1.473,2.062,2.062,0,0,0,.807-.152Z" transform="translate(-3803.79 -954.1)"/>
      </g>
      <g id="组_38" data-name="组 38" transform="translate(102.278 1.228)">
        <path id="路径_38" data-name="路径 38" class="cls-1" d="M3894.237,983.384a1.314,1.314,0,0,1-1.369,1.4,1.277,1.277,0,0,1-1.318-1.354,1.312,1.312,0,0,1,1.364-1.4A1.271,1.271,0,0,1,3894.237,983.384Zm-2.182.027a.852.852,0,1,0,.847-1.022C3892.311,982.389,3892.055,982.911,3892.055,983.41Z" transform="translate(-3891.55 -982.03)"/>
      </g>
      <g id="组_39" data-name="组 39" transform="translate(105.341 3.294)">
        <path id="路径_39" data-name="路径 39" class="cls-1" d="M3974.38,1038.242a.328.328,0,0,1,.341-.342.342.342,0,1,1-.341.342Z" transform="translate(-3974.38 -1037.9)"/>
      </g>
      <g id="组_40" data-name="组 40" transform="translate(106.312 3.234)">
        <path id="路径_40" data-name="路径 40" class="cls-1" d="M4000.659,1037.634a7.524,7.524,0,0,0,.341-1.3l.557-.054a6.481,6.481,0,0,1-.54,1.321Z" transform="translate(-4000.659 -1036.28)"/>
      </g>
      <g id="组_41" data-name="组 41" transform="translate(107.829 0.255)">
        <path id="路径_41" data-name="路径 41" class="cls-1" d="M4041.69,955.71h.494v3.267h1.636v.4h-2.13V955.71Z" transform="translate(-4041.69 -955.71)"/>
      </g>
      <g id="组_42" data-name="组 42" transform="translate(110.159 0.532)">
        <path id="路径_42" data-name="路径 42" class="cls-1" d="M4105.615,963.21v.756h.716v.364h-.716v1.419c0,.326.1.511.375.511a1.164,1.164,0,0,0,.291-.033l.022.359a1.27,1.27,0,0,1-.443.065.709.709,0,0,1-.54-.2.945.945,0,0,1-.193-.685V964.33h-.426v-.364h.426v-.63Z" transform="translate(-4104.7 -963.21)"/>
      </g>
      <g id="组_43" data-name="组 43" transform="translate(112.119 0.06)">
        <path id="路径_43" data-name="路径 43" class="cls-1" d="M4160.292,950.42v3.18c0,.234.006.5.023.68h-.449l-.022-.457h-.012a1.024,1.024,0,0,1-.937.516,1.218,1.218,0,0,1-1.176-1.337,1.279,1.279,0,0,1,1.233-1.413.931.931,0,0,1,.829.4h.011V950.42Zm-.5,2.3a.806.806,0,0,0-.023-.2.728.728,0,0,0-.722-.555c-.517,0-.824.435-.824,1.016,0,.533.272.973.813.973a.745.745,0,0,0,.733-.571.793.793,0,0,0,.023-.206Z" transform="translate(-4157.719 -950.42)"/>
      </g>
      <g id="组_44" data-name="组 44" transform="translate(115.346 3.294)">
        <path id="路径_44" data-name="路径 44" class="cls-1" d="M4245,1038.242a.328.328,0,0,1,.341-.342.342.342,0,1,1-.341.342Z" transform="translate(-4245 -1037.9)"/>
      </g>
    </g>
    <g id="_x31_" transform="translate(-373.476 -189.908)">
      <g id="组_45" data-name="组 45" transform="translate(0 0.142)">
        <path id="路径_45" data-name="路径 45" class="cls-1" d="M1153.509,623.25q-.037,1.12-.037,2.119h3.2q-.037.8-.037,2.2,0,1.36.037,2.039h-.809v-.6h-2.391v1.719q0,.48.037,1.8h-.883q.073-.72.073-1.679v-1.839h-2.391v.6h-.809q.036-.6.037-2.039,0-1.478-.037-2.2h3.2q0-1.08-.037-2.119Zm-.809,5.118v-2.359h-2.391v2.359Zm3.164,0v-2.359h-2.391v2.359Z" transform="translate(-1149.39 -623.146)"/>
        <path id="路径_46" data-name="路径 46" class="cls-1" d="M1150.755,629.932h-1.1l.011-.113c.048-.477.073-1.038.073-1.669v-1.736h-2.185v.6h-1.022l.007-.109c.025-.4.037-1.086.037-2.033,0-.972-.012-1.71-.037-2.194l-.005-.108h3.206c0-.67-.013-1.346-.037-2.012l0-.106h1.06l0,.106c-.023.7-.035,1.375-.037,2.013h3.206l-.005.108c-.024.525-.037,1.263-.037,2.194,0,.9.012,1.588.037,2.033l.006.109H1152.9v-.6h-2.185v1.616c0,.325.012.929.037,1.8Zm-.875-.206h.664c-.023-.813-.034-1.383-.034-1.7v-1.822h2.6v.6h.6c-.021-.451-.031-1.086-.031-1.936,0-.872.011-1.576.032-2.1h-3.2v-.1c0-.638.011-1.316.033-2.016h-.633c.022.669.033,1.346.033,2.016v.1h-3.2c.021.486.032,1.19.032,2.1,0,.87-.01,1.52-.031,1.936h.6v-.6h2.6v1.942C1149.943,628.738,1149.922,629.268,1149.88,629.726Zm3.227-3.952h-2.6v-2.565h2.6Zm-2.392-.206h2.186v-2.153h-2.186Zm-.772.206h-2.6v-2.565h2.6Zm-2.392-.206h2.186v-2.153h-2.186Z" transform="translate(-1146.53 -620.45)"/>
      </g>
      <g id="组_46" data-name="组 46" transform="translate(8.783 0.338)">
        <path id="路径_47" data-name="路径 47" class="cls-1" d="M1390.454,633.418a3.294,3.294,0,0,0-.441.72,9.654,9.654,0,0,0-1.693-1.12,4.386,4.386,0,0,0,.4-.68A18.924,18.924,0,0,1,1390.454,633.418Zm-.736,4.118q-.331.559-.7,1.119a2.047,2.047,0,0,0-.662-.56q.515-.639,1.012-1.359a14.454,14.454,0,0,0,1.085-1.959,4.036,4.036,0,0,0,.552.56Q1390.048,636.978,1389.718,637.536Zm1.067-6.557a5.213,5.213,0,0,0-.515.64,9.519,9.519,0,0,0-1.508-1.279,5.82,5.82,0,0,0,.441-.6Q1389.938,630.26,1390.785,630.979Zm5.519-.68v.76q-.847-.039-1.582-.04h-2.575v6.637h2.8q.772,0,1.619-.04v.8q-.847-.041-1.472-.04h-3.679q.036-1.2.037-1.879v-4.478q0-.92-.037-1.679h3.311Q1395.458,630.34,1396.3,630.3Z" transform="translate(-1388.164 -629.593)"/>
        <path id="路径_48" data-name="路径 48" class="cls-1" d="M1384.955,634.987l-.089-.108a1.972,1.972,0,0,0-.627-.533l-.117-.056.081-.1c.339-.421.678-.877,1.007-1.354a14.466,14.466,0,0,0,1.077-1.945l.073-.152.1.134a4,4,0,0,0,.538.545l.064.056-.043.074q-.957,1.64-1.288,2.2c-.215.363-.451.741-.7,1.124Zm-.515-.765a2.194,2.194,0,0,1,.493.421c.221-.34.43-.677.622-1h0q.323-.547,1.244-2.125a4.611,4.611,0,0,1-.4-.391,14.109,14.109,0,0,1-1.024,1.828C1385.073,633.4,1384.757,633.824,1384.441,634.222Zm8.15.46-.108-.005c-.555-.026-1.048-.04-1.467-.04h-3.786l0-.106c.025-.818.036-1.431.036-1.876v-4.478c0-.6-.012-1.165-.036-1.674l-.005-.108h3.419c.49,0,1.021-.013,1.577-.04l.108-.005v.976l-.108-.005c-.568-.027-1.1-.04-1.577-.04h-2.472v6.431h2.693c.516,0,1.059-.013,1.614-.04l.108-.005v1.016Zm-5.148-.251h3.573c.395,0,.855.012,1.369.035v-.584c-.521.023-1.03.035-1.516.035h-2.9v-6.843h2.679c.451,0,.948.012,1.479.035v-.544c-.521.023-1.018.035-1.479.035h-3.2c.021.484.032,1.014.032,1.576v4.478C1387.477,633.082,1387.466,633.664,1387.443,634.431Zm-1.47-3.973-.1-.083a9.563,9.563,0,0,0-1.674-1.107l-.109-.057.074-.1a4.321,4.321,0,0,0,.395-.663l.048-.1.094.051a19.113,19.113,0,0,1,1.739,1.086l.1.067-.08.087a3.239,3.239,0,0,0-.425.7Zm-1.574-1.318a9.84,9.84,0,0,1,1.505.994,3.665,3.665,0,0,1,.325-.538c-.539-.37-1.054-.692-1.534-.959A4.746,4.746,0,0,1,1384.4,629.14Zm1.813-1.2-.089-.092a9.472,9.472,0,0,0-1.492-1.266l-.094-.063.071-.088a5.726,5.726,0,0,0,.434-.589l.058-.094.09.063c.491.347,1.026.766,1.589,1.245l.082.069-.073.079a5.135,5.135,0,0,0-.5.627Zm-1.374-1.465a9.678,9.678,0,0,1,1.344,1.14,5.564,5.564,0,0,1,.381-.469c-.5-.418-.968-.788-1.406-1.1C1385.075,626.169,1384.968,626.313,1384.838,626.475Z" transform="translate(-1384.09 -625.75)"/>
      </g>
      <g id="组_47" data-name="组 47" transform="translate(18.06 0.114)">
        <path id="路径_49" data-name="路径 49" class="cls-1" d="M1641.15,625.209v5.477q0,1.2.037,1.879h-.809a13.213,13.213,0,0,0,.11-1.919v-4.038a13.861,13.861,0,0,1-.846,1.6,1.923,1.923,0,0,0-.552-.64,8.752,8.752,0,0,0,.993-1.7,11.542,11.542,0,0,0,.883-2.579q.4.16.883.32A6.471,6.471,0,0,0,1641.15,625.209Zm6.512.12q-.736-.039-2.907-.04t-2.943.04v-.68h5.85Zm-.552,1.44q-.626-.039-2.281-.04t-2.465.04v-.68q.7.041,2.391.04,1.729,0,2.355-.04v.68Zm0,1.4q-.516-.039-2.244-.04-1.692,0-2.5.04v-.68q.773.04,2.5.04,1.766,0,2.244-.04Zm-.11,2.479q0,1.079.037,1.639h-.7v-.68h-3.164v.84h-.736q.036-.6.037-1.679,0-1.119-.037-1.719h4.6Q1647,629.527,1647,630.646Zm-.662.32v-1.359h-3.164v1.359Zm-1.472-7.2q.111.28.221.6a6.271,6.271,0,0,1-.662.2,3.279,3.279,0,0,0-.442-1.04c.245-.106.466-.2.662-.28Q1644.756,623.49,1644.866,623.77Z" transform="translate(-1638.939 -623.118)"/>
        <path id="路径_50" data-name="路径 50" class="cls-1" d="M1637.376,629.241h-1.038l.018-.119a13.174,13.174,0,0,0,.109-1.9v-3.58a12.513,12.513,0,0,1-.656,1.2l-.093.147-.084-.152a1.826,1.826,0,0,0-.522-.606l-.09-.065.071-.085a8.711,8.711,0,0,0,.979-1.678,11.5,11.5,0,0,0,.875-2.556l.026-.119.113.045c.27.107.565.214.878.318l.151.05-.108.117a5.917,5.917,0,0,0-.672,1.547v5.46c0,.8.012,1.427.036,1.873Zm-.8-.206h.582c-.021-.441-.031-1.038-.031-1.776l.006-5.512a9.1,9.1,0,0,1,.631-1.512c-.225-.076-.44-.155-.643-.233a11.673,11.673,0,0,1-.865,2.484,9.759,9.759,0,0,1-.94,1.637,2.005,2.005,0,0,1,.407.459,14.571,14.571,0,0,0,.751-1.445l.2.043v4.038A14.206,14.206,0,0,1,1636.577,629.034Zm2.78.086h-.948l.007-.109c.024-.4.037-.964.037-1.673,0-.735-.012-1.311-.037-1.713l-.007-.109h4.819l-.008.111c-.024.314-.036.849-.036,1.591,0,.716.012,1.266.036,1.632l.007.11h-.912v-.68h-2.958v.839Zm-.73-.206h.524v-.84h3.37v.68h.487c-.02-.369-.03-.874-.03-1.536s.01-1.169.03-1.5h-4.38c.02.4.031.941.031,1.616C1638.658,627.989,1638.648,628.518,1638.628,628.914Zm3.894-1.273h-3.37v-1.565h3.37Zm-3.164-.206h2.958v-1.153h-2.958Zm3.937-2.584-.111-.009c-.345-.026-1.1-.04-2.236-.04-1.113,0-1.953.013-2.5.04l-.108.005v-.9l.108.006c.506.027,1.346.04,2.5.04,1.172,0,1.924-.013,2.236-.04l.112-.01Zm-4.746-.682v.464c.548-.023,1.354-.035,2.4-.035s1.754.011,2.141.033v-.459c-.366.022-1.069.033-2.141.033C1639.856,624.2,1639.069,624.191,1638.548,624.168Zm4.746-.718-.109-.007c-.42-.027-1.186-.04-2.275-.04s-1.916.013-2.46.04l-.108.005v-.9l.109.006c.458.026,1.26.04,2.385.04,1.148,0,1.938-.013,2.348-.04l.11-.007Zm-4.746-.681v.463c.546-.023,1.34-.035,2.362-.035,1.005,0,1.737.011,2.178.034v-.461c-.438.023-1.178.034-2.252.034S1639.025,622.792,1638.548,622.769Zm5.3-.76-.109-.006c-.494-.027-1.469-.04-2.9-.04s-2.42.013-2.938.04l-.108.006v-.891h2.6a2.894,2.894,0,0,0-.4-.947l-.1-.107.133-.057c.246-.106.467-.2.664-.281l.091-.037.041.089c.072.158.148.334.223.525h0q.111.282.222.6l.033.1-.1.035c-.078.028-.156.055-.234.08h2.878v.89Zm-5.85-.685v.469c.545-.023,1.5-.035,2.84-.035s2.279.012,2.8.035v-.468Zm2.227-1.179a4.225,4.225,0,0,1,.352.872c.153-.04.307-.086.462-.139q-.093-.263-.186-.5h0c-.06-.152-.12-.294-.178-.425C1640.535,620.012,1640.384,620.076,1640.223,620.145Z" transform="translate(-1635.02 -619.69)"/>
      </g>
      <g id="组_48" data-name="组 48" transform="translate(27.542 0.032)">
        <path id="路径_51" data-name="路径 51" class="cls-1" d="M1896.586,629.846a4.888,4.888,0,0,0-.736-.28,6.273,6.273,0,0,0,.736-2,3.79,3.79,0,0,0,.7.2A21.849,21.849,0,0,1,1896.586,629.846Zm2.906-7.6h3.716q-.037.8-.037,2.159,0,1.319.037,2.239H1897.1q.036-.919.037-2.239,0-1.359-.037-2.159h1.729a6.84,6.84,0,0,0,.221-1.159q.4.12.92.24A5.228,5.228,0,0,0,1899.492,622.25Zm2.98,1.279v-.719h-4.636v.719Zm0,1.28v-.719h-4.636v.719Zm0,1.279v-.719h-4.636v.719Zm-3.642,2.8a1.056,1.056,0,0,0,.092.58c.061.066.251.1.571.1h1.84a.422.422,0,0,0,.35-.12,2.223,2.223,0,0,0,.129-.84,2.416,2.416,0,0,0,.773.32,3.379,3.379,0,0,1-.331,1,.9.9,0,0,1-.662.24h-2.723q-.589-.04-.681-.34a2.765,2.765,0,0,1-.074-.86q.018-.559-.018-1.639h.773Q1898.829,628.406,1898.83,628.886Zm2.171-.6a4.839,4.839,0,0,0-.662.4,5.371,5.371,0,0,0-.626-1.2q.331-.2.626-.4A10.519,10.519,0,0,1,1901,628.287Zm3.421.68a4.786,4.786,0,0,0-.626.56,11.472,11.472,0,0,0-1.288-1.8,3.435,3.435,0,0,0,.589-.52Q1903.723,628.087,1904.422,628.966Z" transform="translate(-1895.688 -620.957)"/>
        <path id="路径_52" data-name="路径 52" class="cls-1" d="M1894.659,626.792c-.445-.03-.7-.169-.779-.413a2.825,2.825,0,0,1-.078-.893c.012-.366.005-.915-.018-1.632l0-.106h.986l0,.106c-.024.709-.036,1.233-.036,1.555,0,.428.057.5.064.51s.067.067.5.067h1.84a.358.358,0,0,0,.268-.08,2.039,2.039,0,0,0,.108-.782l.01-.183.152.1a2.326,2.326,0,0,0,.739.3l.1.024-.023.1a3.4,3.4,0,0,1-.348,1.037.978.978,0,0,1-.738.282Zm-.666-2.839c.021.678.027,1.182.015,1.539a2.678,2.678,0,0,0,.069.826c.047.154.245.244.589.267h2.716c.379-.03.525-.124.579-.2a2.847,2.847,0,0,0,.291-.864,2.694,2.694,0,0,1-.557-.217c-.036.524-.093.664-.139.725a.515.515,0,0,1-.431.16h-1.84c-.464,0-.589-.071-.646-.133s-.119-.188-.119-.65c0-.309.011-.8.033-1.456h-.56Zm-1.563,2.555-.1-.047a4.77,4.77,0,0,0-.72-.274l-.132-.039.075-.116a6.2,6.2,0,0,0,.722-1.965l.027-.119.113.046a3.733,3.733,0,0,0,.68.194l.111.022-.033.109a21.876,21.876,0,0,1-.7,2.09Zm-.63-.479a5,5,0,0,1,.525.2c.16-.393.368-1.018.622-1.862a3.928,3.928,0,0,1-.494-.139A6.6,6.6,0,0,1,1891.8,626.03Zm7.772.19-.071-.118a11.38,11.38,0,0,0-1.276-1.783l-.081-.088.1-.067a3.305,3.305,0,0,0,.571-.5l.086-.094.073.1c.416.585.86,1.175,1.321,1.755l.066.083-.084.064a4.665,4.665,0,0,0-.612.547Zm-1.117-1.953a11.731,11.731,0,0,1,1.152,1.614,4.99,4.99,0,0,1,.462-.409c-.413-.522-.813-1.053-1.19-1.58A3.568,3.568,0,0,1,1898.455,624.267Zm-2.374,1.1-.047-.123a5.308,5.308,0,0,0-.613-1.177l-.064-.09.1-.057c.216-.13.425-.264.621-.4l.088-.06.057.09a10.7,10.7,0,0,1,.669,1.212l.043.093-.093.043a4.813,4.813,0,0,0-.647.391Zm-.429-1.328a5.494,5.494,0,0,1,.527,1.01,5.025,5.025,0,0,1,.477-.289,10.478,10.478,0,0,0-.557-1.007C1895.956,623.851,1895.805,623.947,1895.651,624.042Zm3.456-.768h-6.322l0-.107c.024-.617.037-1.369.037-2.235,0-.892-.012-1.617-.037-2.154l0-.108h1.762a7.881,7.881,0,0,0,.194-1.07l.015-.12.116.034c.267.079.575.159.914.238l.139.033-.075.122a6.4,6.4,0,0,0-.415.763h3.673l0,.108c-.024.526-.036,1.251-.036,2.154,0,.878.012,1.63.036,2.235Zm-6.108-.206h5.893c-.022-.588-.032-1.306-.032-2.136,0-.847.011-1.537.032-2.056h-3.753l.047-.137a4.852,4.852,0,0,1,.414-.818c-.243-.058-.468-.117-.672-.175a6.237,6.237,0,0,1-.209,1.061l-.024.069H1893c.021.528.032,1.219.032,2.056C1893.032,621.751,1893.021,622.469,1893,623.068Zm5.368-.354h-4.842v-.926h4.842Zm-4.636-.206h4.43v-.513h-4.43Zm4.636-1.073h-4.842v-.926h4.842Zm-4.636-.206h4.43v-.514h-4.43Zm4.636-1.073h-4.842v-.926h4.842Zm-4.636-.206h4.43v-.514h-4.43Z" transform="translate(-1891.48 -617.48)"/>
      </g>
      <g id="组_49" data-name="组 49" transform="translate(36.864 0.183)">
        <path id="路径_53" data-name="路径 53" class="cls-1" d="M2151.847,628.9q-.515.28-1.067.56v3a.792.792,0,0,1-.258.72,2.823,2.823,0,0,1-1.177.4,3.794,3.794,0,0,0-.294-.88q.735.04.9-.14a.6.6,0,0,0,.166-.42v-2.319a9.73,9.73,0,0,0-1.141.64,1.963,1.963,0,0,0-.368-.76,8.87,8.87,0,0,0,1.509-.64V627.1q-.773,0-1.288.04v-.719q.515.04,1.288.04,0-1.439-.037-2.119h.736q-.037.6-.037,2.119.4,0,.993-.04v.719q-.589-.039-.993-.04v1.639a5.786,5.786,0,0,0,.957-.56Q2151.773,628.458,2151.847,628.9Zm.4-.759q.773.04,1.8.04v-1.6h-.846q-.662,0-1.1.04v-.72q.552.041,1.03.04h.92q0-.6-.037-1.479h.773q-.037.72-.037,1.479h1.287q.4,0,.92-.04v.72q-.516-.039-.92-.04h-1.287v1.6h1.876a10.88,10.88,0,0,1-.589,1.759,7.766,7.766,0,0,1-1.067,1.8,5.4,5.4,0,0,0,1.214.759,6.41,6.41,0,0,0,1.141.4,4.568,4.568,0,0,0-.441.759,7.286,7.286,0,0,1-2.428-1.439,9.246,9.246,0,0,1-2.576,1.4q-.147-.24-.552-.76a5.039,5.039,0,0,0,1.214-.36,8.979,8.979,0,0,0,1.4-.759,9.154,9.154,0,0,1-1.214-2.919h-.478v-.679Zm2.208,3.078a3.858,3.858,0,0,0,.681-1,8.037,8.037,0,0,0,.57-1.439h-2.318A6.928,6.928,0,0,0,2154.46,631.216Z" transform="translate(-2148.425 -624.237)"/>
        <path id="路径_54" data-name="路径 54" class="cls-1" d="M2152.138,631.1l-.087-.029a7.35,7.35,0,0,1-2.4-1.4,9.778,9.778,0,0,1-2.538,1.359l-.08.032-.046-.074c-.1-.158-.281-.411-.545-.75l-.109-.14.175-.026a4.961,4.961,0,0,0,1.189-.353,8.726,8.726,0,0,0,1.3-.7,9.293,9.293,0,0,1-1.154-2.784h-.5v-.891l.108.006c.481.025,1.05.038,1.694.04V624h-.743c-.431,0-.8.013-1.095.04l-.112.01v-.943l.111.008c.361.026.706.04,1.023.04h.816c0-.376-.014-.826-.037-1.372l0-.107h.989l-.005.108c-.023.439-.035.9-.037,1.371h1.185c.268,0,.574-.013.911-.04l.111-.008v.942l-.111-.009c-.35-.027-.648-.04-.912-.04h-1.185V625.4h1.9l-.029.126a11.022,11.022,0,0,1-.594,1.776,7.906,7.906,0,0,1-1.018,1.742,5.267,5.267,0,0,0,1.112.682,6.321,6.321,0,0,0,1.122.394l.15.035-.09.125a4.51,4.51,0,0,0-.432.743Zm-2.484-1.7.068.058a7.309,7.309,0,0,0,2.307,1.391,4.672,4.672,0,0,1,.326-.569,6.908,6.908,0,0,1-1.013-.369,5.552,5.552,0,0,1-1.237-.774l-.078-.064.063-.079a7.7,7.7,0,0,0,1.052-1.775,11.114,11.114,0,0,0,.553-1.616h-1.849V623.8h1.391c.241,0,.509.011.817.032v-.5c-.3.021-.574.032-.817.032h-1.391v-.1c0-.472.011-.935.032-1.376h-.557c.021.551.032,1,.032,1.376v.1h-1.023c-.29,0-.6-.011-.927-.033v.5c.28-.021.616-.031,1-.031h.949V625.6h-.1c-.641,0-1.213-.012-1.7-.035v.469h.458l.018.08a9.09,9.09,0,0,0,1.2,2.886l.055.087-.086.056a9.182,9.182,0,0,1-1.414.768,5.469,5.469,0,0,1-1.068.338c.179.234.315.421.406.559a9.014,9.014,0,0,0,2.467-1.349Zm-5.2,1.615-.019-.1a3.7,3.7,0,0,0-.286-.855l-.072-.155.17.009c.6.032.771-.053.82-.107a.5.5,0,0,0,.138-.35V627.3a9.812,9.812,0,0,0-.981.561l-.121.079-.035-.14a1.866,1.866,0,0,0-.349-.72l-.1-.13.163-.035a8.519,8.519,0,0,0,1.427-.6v-1.792c-.46,0-.856.015-1.177.04l-.111.008v-.942l.111.009c.313.024.709.038,1.177.04,0-.894-.013-1.57-.037-2.01l-.005-.108h.954l-.007.109c-.023.379-.036,1.055-.037,2.009.25,0,.546-.016.883-.039l.11-.007v.94l-.11-.007c-.35-.023-.641-.036-.884-.039V625.9a5.611,5.611,0,0,0,.793-.479l.141-.1.022.172c.023.184.061.425.11.716l.012.073-.065.035c-.336.183-.677.362-1.013.532v2.935a.885.885,0,0,1-.3.8,2.884,2.884,0,0,1-1.224.421Zm-.05-.89a3.816,3.816,0,0,1,.214.651,2.567,2.567,0,0,0,1.032-.36.689.689,0,0,0,.22-.632v-3.07l.056-.029c.331-.168.667-.343,1-.524-.03-.182-.056-.343-.075-.483a5.989,5.989,0,0,1-.834.472l-.146.068v-1.9h.1c.243,0,.535.011.89.033v-.5c-.343.022-.643.033-.89.033h-.1v-.1c0-.94.01-1.6.031-2.016h-.519c.021.461.031,1.139.031,2.016v.1h-.1c-.464,0-.862-.011-1.185-.032v.5c.33-.021.728-.033,1.185-.033h.1v2.126l-.058.028a11.827,11.827,0,0,1-1.382.607,2.085,2.085,0,0,1,.258.538,9.9,9.9,0,0,1,1.035-.571l.147-.07v2.482a.7.7,0,0,1-.193.489C2145.1,630.079,2144.841,630.136,2144.407,630.128Zm5.239-1.437-.071-.087a7.052,7.052,0,0,1-1.086-2.476l-.036-.13h2.591l-.038.132a8.206,8.206,0,0,1-.578,1.458,3.923,3.923,0,0,1-.7,1.027Zm-.922-2.487a7.063,7.063,0,0,0,.939,2.179,4.194,4.194,0,0,0,.581-.89,7.985,7.985,0,0,0,.524-1.289Z" transform="translate(-2143.62 -621.56)"/>
      </g>
      <g id="组_50" data-name="组 50" transform="translate(46.232 0.263)">
        <path id="路径_55" data-name="路径 55" class="cls-1" d="M2406.334,628.859V628.1q0-.959-.036-1.6h.846q-.037.72-.037,1.6v.759h2.318q.626,0,1.361-.04v.8q-.7-.039-1.324-.04h-1.693a6.937,6.937,0,0,0,.57,1.4,6.824,6.824,0,0,0,.791,1.159,5.638,5.638,0,0,0,.957.9,3.845,3.845,0,0,0,.957.54,4.909,4.909,0,0,0-.7.76,8.091,8.091,0,0,1-1.141-.9,7.6,7.6,0,0,1-1.637-2.4,11.936,11.936,0,0,1-.46-1.3v4.4q0,.6.037,1.4h-.846q.036-.8.037-1.4v-4.2q-.22.6-.515,1.239a8.2,8.2,0,0,1-.644,1.159,8.9,8.9,0,0,1-.846,1.059,12.909,12.909,0,0,1-1.269,1.179,2.3,2.3,0,0,0-.7-.68,5.559,5.559,0,0,0,1.049-.759,6.891,6.891,0,0,0,.957-1.06,8.788,8.788,0,0,0,.754-1.239,8.155,8.155,0,0,0,.515-1.26h-1.545q-.589,0-1.4.04v-.8q.809.04,1.361.04h2.281Zm3.128-1.639a9.811,9.811,0,0,1,.588.84,5.328,5.328,0,0,0-.662.56q-.368-.639-.607-1a4.9,4.9,0,0,0-.46-.6l.588-.44Q2409.2,626.9,2409.462,627.219Z" transform="translate(-2402.162 -626.397)"/>
        <path id="路径_56" data-name="路径 56" class="cls-1" d="M2402.09,632.962h-1.062l.005-.108c.024-.543.036-1,.036-1.4v-3.648q-.146.359-.319.733a8.43,8.43,0,0,1-.652,1.174,9.161,9.161,0,0,1-.856,1.072,13.053,13.053,0,0,1-1.28,1.189l-.091.076-.062-.1a2.213,2.213,0,0,0-.668-.648l-.142-.095.15-.081a5.451,5.451,0,0,0,1.029-.746,6.824,6.824,0,0,0,.943-1.044,8.716,8.716,0,0,0,.745-1.225,8.353,8.353,0,0,0,.466-1.11h-1.4c-.385,0-.842.013-1.393.04l-.108.005v-1.016l.108.005c.531.027.987.04,1.356.04h2.178v-.657c0-.63-.012-1.166-.036-1.593l-.006-.109h1.064l-.005.108c-.024.471-.037,1.007-.037,1.594v.657h2.138l-.049-.085c-.245-.426-.448-.76-.6-.994a4.848,4.848,0,0,0-.45-.587l-.077-.084.755-.564.063.069c.2.215.385.432.557.644h0a10.113,10.113,0,0,1,.594.849l.051.08-.076.057a5.306,5.306,0,0,0-.648.547l-.062.067h.023c.417,0,.873-.013,1.356-.04l.109-.006v1.017l-.109-.006c-.47-.027-.914-.04-1.319-.04h-1.554a6.762,6.762,0,0,0,1.3,2.389,5.583,5.583,0,0,0,.939.884,3.758,3.758,0,0,0,.931.526l.161.058-.127.115a4.822,4.822,0,0,0-.685.743l-.058.081-.083-.055a8.233,8.233,0,0,1-1.155-.911,7.686,7.686,0,0,1-1.661-2.433c-.095-.227-.183-.455-.262-.68v3.739c0,.4.013.871.037,1.395Zm-.847-.206h.631c-.021-.484-.032-.919-.032-1.3v-4.4l.2-.029a11.9,11.9,0,0,0,.456,1.288,7.5,7.5,0,0,0,1.614,2.364,7.89,7.89,0,0,0,1.045.834,5,5,0,0,1,.534-.584,4.274,4.274,0,0,1-.828-.492,5.769,5.769,0,0,1-.974-.916,6.966,6.966,0,0,1-.8-1.176,7.062,7.062,0,0,1-.579-1.42l-.038-.132h1.83c.377,0,.788.011,1.221.034v-.582c-.446.023-.869.034-1.258.034h-2.421v-.863c0-.546.011-1.049.032-1.5h-.629c.021.412.031.915.031,1.5v.863h-2.384c-.347,0-.77-.012-1.258-.035v.583c.507-.024.931-.035,1.295-.035h1.685l-.041.134a8.372,8.372,0,0,1-.521,1.276,8.933,8.933,0,0,1-.763,1.254,7.03,7.03,0,0,1-.97,1.075,5.913,5.913,0,0,1-.926.692,2.415,2.415,0,0,1,.529.518,12.694,12.694,0,0,0,1.171-1.1,8.96,8.96,0,0,0,.837-1.047,8.18,8.18,0,0,0,.636-1.145c.2-.426.368-.84.512-1.232l.2.036v4.2C2401.275,631.831,2401.265,632.256,2401.243,632.756Zm2.068-8.4a5.5,5.5,0,0,1,.394.527c.146.219.324.511.543.888a6.415,6.415,0,0,1,.5-.416c-.195-.3-.373-.554-.531-.75s-.314-.377-.485-.566Z" transform="translate(-2397 -623.72)"/>
      </g>
      <g id="组_51" data-name="组 51" transform="translate(57.549 0.413)">
        <path id="路径_57" data-name="路径 57" class="cls-1" d="M2708.154,640.226l-.405.44a7,7,0,0,1-1.38-2,6.281,6.281,0,0,1,0-4.718,7.566,7.566,0,0,1,1.38-2.039l.405.44a6.489,6.489,0,0,0-1.27,1.819,5.618,5.618,0,0,0,0,4.278A5.962,5.962,0,0,0,2708.154,640.226Z" transform="translate(-2705.806 -631.758)"/>
        <path id="路径_58" data-name="路径 58" class="cls-1" d="M2705.054,636.848l-.076-.079a7.124,7.124,0,0,1-1.4-2.029,6.381,6.381,0,0,1,0-4.8,7.687,7.687,0,0,1,1.4-2.067l.075-.082.547.593-.067.07a6.412,6.412,0,0,0-1.25,1.79,5.521,5.521,0,0,0,0,4.193,5.893,5.893,0,0,0,1.248,1.748l.071.07Zm0-8.754a7.413,7.413,0,0,0-1.286,1.928,6.185,6.185,0,0,0,0,4.634,6.869,6.869,0,0,0,1.285,1.89l.263-.286a6.03,6.03,0,0,1-1.221-1.74,5.724,5.724,0,0,1,0-4.362,6.538,6.538,0,0,1,1.223-1.778Z" transform="translate(-2703.11 -627.79)"/>
      </g>
      <g id="组_52" data-name="组 52" transform="translate(60.64 0.342)">
        <path id="路径_59" data-name="路径 59" class="cls-1" d="M2793.721,629.939v1.679h2.1q.735,0,1.4-.04v.88q-.736-.039-1.471-.04h-2.024v4.038h2.907q.552,0,1.288-.04v.84q-.7-.04-1.288-.04h-5.813q-.589,0-1.325.04v-.84q.7.04,1.325.04h2.133v-6.477q0-.6-.037-1.32h.846Q2793.721,629.34,2793.721,629.939Z" transform="translate(-2789.387 -628.556)"/>
        <path id="路径_60" data-name="路径 60" class="cls-1" d="M2795.341,634.669l-.109-.006c-.458-.026-.89-.04-1.281-.04h-5.813c-.393,0-.836.013-1.319.04l-.109.006v-1.057l.109.006c.458.026.9.04,1.319.04h2.031v-6.374c0-.391-.012-.833-.036-1.314l-.006-.108h1.063l-.006.109c-.025.445-.037.873-.037,1.274v1.576h1.994c.49,0,.958-.013,1.392-.04l.109-.007v1.1l-.108-.006c-.495-.027-.988-.04-1.466-.04h-1.92v3.832h2.8c.367,0,.8-.013,1.282-.04l.108-.006v1.058Zm-8.426-.84v.622c.444-.023.855-.034,1.222-.034h5.813c.365,0,.763.011,1.185.034v-.622c-.443.023-.841.034-1.185.034h-3.01v-4.244h2.127c.447,0,.906.012,1.369.035v-.662c-.407.023-.842.034-1.295.034h-2.2v-1.783c0-.372.011-.767.031-1.176h-.629c.02.443.031.851.031,1.216v6.58h-2.237C2787.75,633.863,2787.339,633.852,2786.916,633.829Z" transform="translate(-2786.71 -625.86)"/>
      </g>
      <g id="组_53" data-name="组 53" transform="translate(69.855 0)">
        <path id="路径_61" data-name="路径 61" class="cls-1" d="M3040.27,624.6a2.127,2.127,0,0,0,.4-.64q.662.44,1.766,1.279a5.184,5.184,0,0,0-.478.68A13.835,13.835,0,0,0,3040.27,624.6Zm1.656,3.678a19.321,19.321,0,0,1-.883,1.959,1.353,1.353,0,0,0-.7-.44,11.854,11.854,0,0,0,.846-1.579q.4-.9.7-1.7a2.222,2.222,0,0,0,.588.52A8.054,8.054,0,0,0,3041.926,628.277Zm.956-5.677q-.257.36-.478.68a11.783,11.783,0,0,0-1.692-1.279,3.768,3.768,0,0,0,.4-.6Q3041.815,621.841,3042.882,622.6Zm5.556,5.877v.72a5.7,5.7,0,0,0-.736-.04q-.074.919-.349,1.12a2.025,2.025,0,0,1-.9.28q-.111-.36-.294-.8a1.441,1.441,0,0,0,.717-.06c.11-.067.178-.246.2-.54h-3.532q.111-1.239.184-2.439-.405,0-.846.04v-.72a8.227,8.227,0,0,0,.883.04q.074-1.478.11-2.159-.185.28-.663.959a3.243,3.243,0,0,0-.552-.48,6.094,6.094,0,0,0,1.048-1.6,8.978,8.978,0,0,0,.607-1.719,2.664,2.664,0,0,0,.773.36,4.645,4.645,0,0,0-.4.8h2.649c.465,0,.883-.013,1.251-.04v.719q-.552-.039-1.288-.04h-2.87q-.258.48-.515.919h4.011q-.036.959-.073,2.279.4,0,.883-.04v.719q-.479-.039-.919-.04-.037.52-.074,1.8Q3048,628.517,3048.438,628.477Zm-1.214-1.759h-2.906q-.075,1.079-.11,1.8h2.944Zm-2.8-2.279q0,.52-.073,1.639h2.906q0-.879.037-1.639Zm1.84,3.6a2.634,2.634,0,0,0-.515.36,9.763,9.763,0,0,0-.626-1.159q.257-.2.479-.36A13.27,13.27,0,0,1,3046.267,628.037Zm.037-2.4a2.647,2.647,0,0,0-.515.36,12.276,12.276,0,0,0-.552-1.12l.442-.36A10,10,0,0,1,3046.3,625.638Z" transform="translate(-3040.11 -620.915)"/>
        <path id="路径_62" data-name="路径 62" class="cls-1" d="M3042.218,626.374l-.025-.083c-.073-.236-.171-.5-.292-.79l-.064-.155.167.012a1.3,1.3,0,0,0,.657-.045c.04-.024.106-.1.141-.349h-3.53l.01-.112c.068-.765.128-1.547.177-2.326-.23,0-.474.016-.728.038l-.112.01v-.947l.114.013c.216.024.476.037.774.039q.052-1.056.085-1.69c-.12.175-.272.393-.455.653l-.074.1-.086-.094a3.152,3.152,0,0,0-.534-.464l-.1-.067.081-.088a6.034,6.034,0,0,0,1.031-1.572,8.924,8.924,0,0,0,.6-1.7l.033-.142.123.078a2.585,2.585,0,0,0,.742.346l.151.036-.092.125a3.878,3.878,0,0,0-.331.636h2.492c.464,0,.883-.013,1.244-.04l.111-.008v.941l-.11-.008c-.369-.026-.8-.04-1.281-.04h-2.808c-.132.245-.265.484-.4.714h3.939l0,.107q-.036.92-.071,2.171c.238,0,.5-.016.768-.039l.112-.01v.944l-.111-.009c-.284-.023-.558-.036-.815-.039-.022.338-.043.873-.064,1.591.156,0,.352-.017.583-.038l.113-.01v.95l-.116-.016a5.342,5.342,0,0,0-.628-.039c-.057.593-.182.953-.383,1.1a2.1,2.1,0,0,1-.949.3Zm-.064-.8c.082.2.152.4.209.574a1.816,1.816,0,0,0,.769-.25c.108-.078.249-.323.307-1.044l.007-.095h.1c.24,0,.451.009.632.027v-.492c-.242.02-.442.031-.6.031h-.107l0-.106c.024-.85.049-1.457.074-1.8l.007-.1h.1c.257,0,.531.011.816.031v-.5c-.277.021-.539.031-.779.031h-.106l0-.106q.034-1.247.07-2.173h-3.836v.023q-.038.68-.11,2.158l-.005.1h-.1c-.3,0-.557-.01-.78-.03v.494c.26-.02.51-.031.743-.031h.11l-.007.109c-.049.779-.107,1.562-.174,2.329h3.531l-.01.112c-.028.331-.11.534-.252.619A1.2,1.2,0,0,1,3042.154,625.573Zm-3.5-5.486a3.3,3.3,0,0,1,.385.335c.255-.363.444-.637.563-.815h-.031l.09-.155c.17-.291.343-.6.513-.916l.029-.054h2.932c.438,0,.836.011,1.185.033v-.5c-.34.022-.725.033-1.148.033h-2.805l.062-.144a6.535,6.535,0,0,1,.338-.7,2.864,2.864,0,0,1-.544-.258,9.423,9.423,0,0,1-.581,1.6A6.288,6.288,0,0,1,3038.655,620.087Zm-1.765,6.064-.1-.156a1.219,1.219,0,0,0-.646-.4l-.122-.044.071-.109a11.771,11.771,0,0,0,.839-1.566c.267-.592.5-1.162.7-1.693l.063-.171.114.142a2.128,2.128,0,0,0,.562.5l.089.054-.054.088a8.017,8.017,0,0,0-.543,1.222,19.509,19.509,0,0,1-.888,1.969Zm-.552-.7a1.654,1.654,0,0,1,.523.3,18.894,18.894,0,0,0,.808-1.809h0a9.177,9.177,0,0,1,.51-1.169,2.3,2.3,0,0,1-.414-.355c-.185.488-.4,1.006-.641,1.542A12.335,12.335,0,0,1,3036.338,625.45Zm6.751-1.125h-3.15l.005-.108c.024-.486.062-1.091.11-1.8l.007-.1h3.11Zm-1.36-.206h1.162l.065-1.593h-1.426v0c.27.428.5.821.668,1.169l.043.089-.087.047A2.645,2.645,0,0,0,3041.729,624.119Zm-1.574,0h1.331a9.712,9.712,0,0,0-.607-1.121l-.051-.079.074-.058q.237-.185.445-.335h-1.094C3040.211,623.141,3040.178,623.676,3040.155,624.119Zm.948-1.152a9.828,9.828,0,0,1,.525.969,2.716,2.716,0,0,1,.343-.235c-.15-.294-.336-.619-.555-.97C3041.317,622.8,3041.212,622.882,3041.1,622.967Zm2.1-1.081h-3.12l.007-.11c.049-.74.074-1.29.074-1.633v-.1h3.081l-.006.108c-.025.5-.037,1.047-.037,1.634Zm-1.388-.206H3043c0-.51.012-.991.031-1.433h-1.375a9.7,9.7,0,0,1,.583,1.053l.041.088-.085.046A2.725,2.725,0,0,0,3041.815,621.68Zm-1.512,0h1.2c-.141-.325-.316-.677-.52-1.047l-.041-.075.382-.311h-.957C3040.365,620.577,3040.343,621.058,3040.3,621.68Zm.905-1.071c.176.324.33.634.459.925a2.793,2.793,0,0,1,.342-.234,9.881,9.881,0,0,0-.517-.923Zm-3.38,1.175-.094-.084a13.851,13.851,0,0,0-1.679-1.31l-.1-.066.084-.091a2.033,2.033,0,0,0,.385-.609l.048-.116.1.07c.446.3,1.042.729,1.771,1.283l.085.065-.068.083a5.055,5.055,0,0,0-.468.666Zm-1.563-1.5a14.291,14.291,0,0,1,1.512,1.182,5.374,5.374,0,0,1,.357-.5c-.634-.481-1.162-.864-1.575-1.144A2.27,2.27,0,0,1,3036.265,620.281Zm2-1.142-.087-.078a11.819,11.819,0,0,0-1.678-1.268l-.1-.061.073-.091a3.753,3.753,0,0,0,.394-.583l.052-.1.094.06c.467.294,1.062.7,1.771,1.2l.084.06-.06.084q-.257.359-.477.678Zm-1.559-1.461a12.052,12.052,0,0,1,1.522,1.152q.166-.24.353-.5c-.623-.442-1.156-.8-1.585-1.078A3.932,3.932,0,0,1,3036.7,617.678Z" transform="translate(-3035.95 -616.62)"/>
      </g>
      <g id="组_54" data-name="组 54" transform="translate(79.144 0.413)">
        <path id="路径_63" data-name="路径 63" class="cls-1" d="M3293.294,636.308a5.78,5.78,0,0,1-.46,2.359,7.013,7.013,0,0,1-1.379,2l-.4-.44a5.987,5.987,0,0,0,1.269-1.779,5.62,5.62,0,0,0,0-4.278,6.509,6.509,0,0,0-1.269-1.819l.4-.44a7.563,7.563,0,0,1,1.379,2.039A5.773,5.773,0,0,1,3293.294,636.308Z" transform="translate(-3290.907 -631.758)"/>
        <path id="路径_64" data-name="路径 64" class="cls-1" d="M3287.726,636.858l-.546-.593.07-.07a5.91,5.91,0,0,0,1.248-1.748,5.521,5.521,0,0,0,0-4.193,6.43,6.43,0,0,0-1.25-1.79l-.067-.07.546-.594.076.083a7.725,7.725,0,0,1,1.4,2.067,6.381,6.381,0,0,1,0,4.8,7.149,7.149,0,0,1-1.4,2.029Zm-.261-.587.263.286a6.872,6.872,0,0,0,1.284-1.89,6.176,6.176,0,0,0,0-4.634,7.428,7.428,0,0,0-1.286-1.928l-.263.286a6.586,6.586,0,0,1,1.222,1.778,5.721,5.721,0,0,1,0,4.362A6.047,6.047,0,0,1,3287.465,636.271Z" transform="translate(-3287.18 -627.8)"/>
      </g>
      <g id="组_55" data-name="组 55" transform="translate(83.996 0.072)">
        <path id="路径_65" data-name="路径 65" class="cls-1" d="M3425.046,626.468a10.013,10.013,0,0,0,1.472-2.219h-1.325q-.516,0-1.288.04v-.759q.957.04,1.435.04h1.4a7.638,7.638,0,0,0,.332-1.4c.368.107.663.187.883.24a4.64,4.64,0,0,0-.368,1.159h2.98q.625,0,1.288-.04v.759q-.662-.039-1.177-.04h-3.312q-.258.52-.552,1.04h4.231q-.037,1-.037,1.8v3.238a1.04,1.04,0,0,1-.294.82,2.348,2.348,0,0,1-1.251.34,3.135,3.135,0,0,0-.258-.959,3.046,3.046,0,0,0,.81.04c.171-.027.258-.173.258-.44v-.8h-3.826v2.119h-.809q.036-1,.037-1.719v-2.839a12.411,12.411,0,0,1-1.619,1.679,2.108,2.108,0,0,0-.663-.64A8.706,8.706,0,0,0,3425.046,626.468Zm5.225.58v-1.12h-3.827v1.12Zm0,1.639v-1h-3.827v1Z" transform="translate(-3423.207 -622.037)"/>
        <path id="路径_66" data-name="路径 66" class="cls-1" d="M3424.58,628.13l-.008-.1a3.05,3.05,0,0,0-.25-.928l-.072-.169.181.026a3.007,3.007,0,0,0,.779.04c.046-.007.17-.027.17-.338v-.7h-3.62v2.119h-1.019l0-.107c.025-.679.037-1.24.037-1.716v-2.551a12.393,12.393,0,0,1-1.449,1.47l-.1.083-.06-.113a2.026,2.026,0,0,0-.63-.6l-.124-.087.126-.084a8.679,8.679,0,0,0,1.636-1.442h0a9.789,9.789,0,0,0,1.38-2.047h-1.156c-.338,0-.757.013-1.283.04l-.108.006v-.975l.108,0c.628.027,1.109.04,1.43.04h1.322a7.285,7.285,0,0,0,.3-1.3l.01-.125.121.035c.362.1.657.186.879.238l.17.041-.118.129a3.668,3.668,0,0,0-.312.987h2.849c.417,0,.848-.013,1.281-.04l.109-.007v.978l-.109-.007c-.443-.026-.838-.04-1.172-.04h-3.247c-.14.279-.287.559-.44.833h4.162l0,.107c-.024.658-.037,1.263-.037,1.8v3.238a1.141,1.141,0,0,1-.329.9,2.4,2.4,0,0,1-1.311.365Zm0-.946a3.18,3.18,0,0,1,.188.722,2.121,2.121,0,0,0,1.092-.305.951.951,0,0,0,.259-.742v-3.238c0-.506.011-1.076.033-1.7h-4.3l.087-.154c.192-.339.377-.688.55-1.034l.028-.057h3.375c.31,0,.671.011,1.075.034v-.541c-.4.022-.8.034-1.185.034h-3.112l.031-.128a7.859,7.859,0,0,1,.313-1.067c-.177-.045-.391-.1-.639-.175a8.966,8.966,0,0,1-.321,1.3l-.022.073h-1.475c-.306,0-.753-.012-1.332-.035v.544c.479-.023.867-.035,1.185-.035h1.492l-.074.149a10.169,10.169,0,0,1-1.487,2.242h0a9.059,9.059,0,0,1-1.552,1.393,2.3,2.3,0,0,1,.506.481,12.445,12.445,0,0,0,1.515-1.588l.183-.228v3.131c0,.453-.011.982-.033,1.616h.6v-2.119h4.032v.9c0,.4-.187.517-.345.542A2.55,2.55,0,0,1,3424.579,627.184Zm1.008-1.861h-4.032v-1.206h4.032Zm-3.826-.206h3.62v-.793h-3.62Zm3.826-1.433h-4.032v-1.326h4.032Zm-3.826-.206h3.62v-.914h-3.62Z" transform="translate(-3418.42 -618.57)"/>
      </g>
      <g id="组_56" data-name="组 56" transform="translate(94.044 0.542)">
        <path id="路径_67" data-name="路径 67" class="cls-1" d="M3694.883,637.268a3.88,3.88,0,0,1,.846,1.759,1.646,1.646,0,0,1-.313,1.32,2.185,2.185,0,0,1-1.048.72,1.719,1.719,0,0,0-.332-.919q.663,0,.847-.28a1.518,1.518,0,0,0,.147-.9,3.355,3.355,0,0,0-.883-1.659,23.142,23.142,0,0,0,.736-2.6h-1.1v8.076h-.7q.036-1.12.037-2.2v-4.678q0-.72-.037-1.839h2.723Q3695.14,636.429,3694.883,637.268Zm5.372-1.2q0,1.24.037,1.959h-1.729a.976.976,0,1,0,1.619.36,3.493,3.493,0,0,0,.551.72,16.734,16.734,0,0,0-1.619,1.039,6.908,6.908,0,0,0,.846,1.039,3.607,3.607,0,0,0,1.288.759,1.49,1.49,0,0,0-.662.76,6.235,6.235,0,0,1-1.38-1.22,5.286,5.286,0,0,1-.809-1.439,7.677,7.677,0,0,1-.423-2.019h-.846v3.638a5.322,5.322,0,0,0,1.067-.759,6.909,6.909,0,0,0,.146.84q-.33.2-.864.52a6.3,6.3,0,0,0-.9.64,5.906,5.906,0,0,0-.4-.72,1.35,1.35,0,0,0,.294-.72v-5.637q0-.8-.037-1.759h3.864Q3700.254,634.789,3700.254,636.069Zm-.663-.36v-1h-2.465v1Zm0,1.679v-1.08h-2.465v1.08Z" transform="translate(-3692.974 -633.966)"/>
        <path id="路径_68" data-name="路径 68" class="cls-1" d="M3693.776,640.377l-.058-.125a5.85,5.85,0,0,0-.4-.707l-.043-.067.054-.059a1.261,1.261,0,0,0,.269-.665v-5.622c0-.522-.012-1.1-.037-1.755l0-.107h4.079l-.005.108c-.024.473-.036,1.144-.036,1.994,0,.823.012,1.481.036,1.954l.005.108H3695.9a3.9,3.9,0,0,0,.307,1.337,3.742,3.742,0,0,0,1.116-1.128l.084-.16.094.155a3.388,3.388,0,0,0,.534.7l.1.1-.126.068a16.2,16.2,0,0,0-1.526.975,6.747,6.747,0,0,0,.777.941,3.529,3.529,0,0,0,1.251.736l.21.079-.2.108a1.4,1.4,0,0,0-.617.709l-.049.115-.1-.07a6.394,6.394,0,0,1-1.4-1.24,5.413,5.413,0,0,1-.825-1.467,7.689,7.689,0,0,1-.42-1.953h-.65v3.359a5.183,5.183,0,0,0,.894-.659l.152-.139.021.205a7,7,0,0,0,.145.827l.017.072-.064.038-.5.3-.365.22a6.208,6.208,0,0,0-.887.629Zm-.241-.88c.124.2.229.379.313.547a6.753,6.753,0,0,1,.813-.563l.365-.22.435-.261c-.048-.216-.084-.408-.108-.583a5.464,5.464,0,0,1-.94.643l-.152.082v-3.914h1.043l.009.094a7.606,7.606,0,0,0,.417,1.992,5.211,5.211,0,0,0,.793,1.412,6.029,6.029,0,0,0,1.257,1.129,1.6,1.6,0,0,1,.479-.584,3.509,3.509,0,0,1-1.135-.708,7.069,7.069,0,0,1-.859-1.055l-.056-.083.082-.058a17.882,17.882,0,0,1,1.509-.979,3.668,3.668,0,0,1-.38-.5,4.648,4.648,0,0,1-1.194,1.126l-.1.074-.051-.116a4.1,4.1,0,0,1-.376-1.641v-.1h1.724c-.021-.467-.031-1.09-.031-1.856,0-.79.01-1.427.031-1.9h-3.649c.023.617.033,1.16.033,1.656v5.637A1.568,1.568,0,0,1,3693.535,639.5Zm-2.416.695h-.908l0-.107c.024-.758.037-1.5.037-2.2v-4.678c0-.466-.012-1.067-.037-1.836l0-.107h2.965l-.036.131c-.422,1.5-.726,2.561-.906,3.15a3.941,3.941,0,0,1,.834,1.765,1.748,1.748,0,0,1-.335,1.4,2.3,2.3,0,0,1-1.1.753l-.125.04-.009-.131a1.63,1.63,0,0,0-.311-.865l-.072-.1v2.778Zm-.7-.206h.49V631.91h1.331l-.022.122a22.539,22.539,0,0,1-.722,2.559,3.325,3.325,0,0,1,.87,1.674,1.6,1.6,0,0,1-.164.962.9.9,0,0,1-.745.32,1.831,1.831,0,0,1,.233.682,2.1,2.1,0,0,0,.88-.644,1.551,1.551,0,0,0,.291-1.24,3.8,3.8,0,0,0-.826-1.711l-.033-.042.016-.051c.172-.56.468-1.591.883-3.065h-2.48c.023.721.034,1.29.034,1.736v4.678C3690.457,638.558,3690.445,639.263,3690.423,639.986Zm.7-2.639h.154c.4,0,.659-.078.76-.233a1.435,1.435,0,0,0,.131-.837,3.287,3.287,0,0,0-.86-1.6l-.035-.044.017-.054a25.337,25.337,0,0,0,.708-2.464h-.876v5.231Zm5.813-2.552h-2.671v-1.286h2.671Zm-2.465-.206h2.26v-.873h-2.26Zm2.465-1.473h-2.671V631.91h2.671Zm-2.465-.206h2.26v-.793h-2.26Z" transform="translate(-3690.21 -631.27)"/>
      </g>
      <g id="组_57" data-name="组 57" transform="translate(102.878 0.091)">
        <path id="路径_69" data-name="路径 69" class="cls-1" d="M3936.044,626.728a11.6,11.6,0,0,1-1.509,2,2.082,2.082,0,0,0-.626-.64,8.52,8.52,0,0,0,1.619-1.959,10.119,10.119,0,0,0,1.214-2.559,2.472,2.472,0,0,0,.736.36A22.97,22.97,0,0,1,3936.044,626.728Zm3.164,2.679a4.662,4.662,0,0,0,.626-.48q.552.88,1.03,1.739t.736,1.379c-.27.16-.5.306-.7.44q-.221-.48-.589-1.159-2.465.36-3.477.52a6.135,6.135,0,0,0-1.453.36,3.53,3.53,0,0,0-.4-.88,1.919,1.919,0,0,0,.7-.56,10.369,10.369,0,0,0,.975-1.679,12.176,12.176,0,0,0,.9-2.239,3.4,3.4,0,0,0,.846.44q-.405.68-1.086,2.039a14.924,14.924,0,0,1-.975,1.759q1.692-.159,3.679-.4A11.341,11.341,0,0,0,3939.208,629.407Zm1.674-3.079a5.812,5.812,0,0,0,1.6,1.519,1.532,1.532,0,0,0-.7.68,9.751,9.751,0,0,1-1.876-2.319,15.42,15.42,0,0,1-1.251-2.679,2.25,2.25,0,0,0,.736-.28A11.146,11.146,0,0,0,3940.882,626.329Z" transform="translate(-3933.733 -623.096)"/>
        <path id="路径_70" data-name="路径 70" class="cls-1" d="M3936.255,628.633l-.051-.111c-.139-.3-.324-.668-.552-1.09-1.636.239-2.75.406-3.4.509a6.1,6.1,0,0,0-1.427.352l-.11.05-.032-.117a3.422,3.422,0,0,0-.394-.853l-.062-.1.108-.047a1.824,1.824,0,0,0,.661-.531,10.362,10.362,0,0,0,.963-1.66,12.121,12.121,0,0,0,.894-2.219l.037-.137.119.078a3.328,3.328,0,0,0,.817.427l.131.036-.07.117c-.267.449-.632,1.133-1.082,2.032-.376.75-.659,1.274-.86,1.59,1-.1,2.116-.218,3.309-.361a12.1,12.1,0,0,0-.73-1.135l-.062-.088.09-.059a4.567,4.567,0,0,0,.612-.469l.092-.085.066.106c.366.583.713,1.17,1.033,1.744.328.59.569,1.043.738,1.384l.042.085-.083.049c-.274.163-.5.305-.694.436Zm-.49-1.425.034.063c.218.4.4.757.541,1.056.153-.1.325-.209.522-.327-.165-.327-.391-.75-.69-1.29s-.623-1.084-.962-1.63a4.983,4.983,0,0,1-.458.348,11.251,11.251,0,0,1,.756,1.2l.07.132-.149.018c-1.339.161-2.578.3-3.682.4l-.229.021.136-.185a14.969,14.969,0,0,0,.966-1.744c.417-.833.761-1.484,1.024-1.935a3.811,3.811,0,0,1-.631-.336,12.779,12.779,0,0,1-.872,2.123,10.264,10.264,0,0,1-.988,1.7,2.137,2.137,0,0,1-.632.538,3.7,3.7,0,0,1,.324.7,6.974,6.974,0,0,1,1.372-.322c.665-.105,1.8-.275,3.478-.52Zm-5.847-2.323-.071-.106a2,2,0,0,0-.593-.609l-.124-.075.112-.092a8.472,8.472,0,0,0,1.6-1.935,10.054,10.054,0,0,0,1.2-2.533l.043-.145.119.093a2.4,2.4,0,0,0,.705.343l.107.036-.045.1a23.2,23.2,0,0,1-1.441,2.811h0a11.786,11.786,0,0,1-1.523,2.017Zm-.441-.813a2.256,2.256,0,0,1,.468.487,11.8,11.8,0,0,0,1.408-1.891,22.686,22.686,0,0,0,1.383-2.684,2.768,2.768,0,0,1-.539-.255,10.456,10.456,0,0,1-1.184,2.449A9.089,9.089,0,0,1,3929.477,624.072Zm7.738.62-.1-.094a9.919,9.919,0,0,1-1.9-2.343,15.563,15.563,0,0,1-1.26-2.7l-.039-.112.117-.023a2.15,2.15,0,0,0,.7-.267l.109-.066.041.121a11.109,11.109,0,0,0,1.474,3.049h0a5.751,5.751,0,0,0,1.571,1.493l.156.092-.16.086a1.439,1.439,0,0,0-.654.632Zm-3.026-5.093a15.447,15.447,0,0,0,1.2,2.552,9.721,9.721,0,0,0,1.759,2.2,1.626,1.626,0,0,1,.529-.516,6.212,6.212,0,0,1-1.484-1.454,11.064,11.064,0,0,1-1.465-2.99A2.335,2.335,0,0,1,3934.189,619.6Z" transform="translate(-3929.13 -619.09)"/>
      </g>
      <g id="组_58" data-name="组 58" transform="translate(112.555 0.577)">
        <path id="路径_71" data-name="路径 71" class="cls-1" d="M4198.479,637.109q.478,0,1.288-.04v.8q-.773-.039-1.251-.04h-3.422c-.465,0-.944.014-1.434.04v-.8q.735.041,1.434.04Zm3.017-1.919q-.037.88-.037,1.559v6.237a.749.749,0,0,1-.5.7,6.213,6.213,0,0,1-1.343.3,2.024,2.024,0,0,0-.368-.959,4.867,4.867,0,0,0,1.178-.08q.22-.08.221-.6V635.87h-5.078q-.662,0-1.435.04v-.759q.773.04,1.4.04Zm-2.392,5v.88q0,.64.037,1.32h-.809v-.52h-3.017v1.08h-.81a12.785,12.785,0,0,0,.073-1.28v-1.479a11.365,11.365,0,0,0-.073-1.2h4.635Q4199.1,639.549,4199.1,640.187Zm-.772,1.04v-1.6h-3.017v1.6Z" transform="translate(-4193.557 -635.042)"/>
        <path id="路径_72" data-name="路径 72" class="cls-1" d="M4196.83,641.282v-.118a1.945,1.945,0,0,0-.353-.906l-.1-.157h.184a4.522,4.522,0,0,0,1.142-.074c.1-.036.153-.214.153-.5v-6.374h-4.974c-.429,0-.91.013-1.43.04l-.108.006v-.976l.108.005c.506.027.975.04,1.393.04h6.068l0,.108c-.024.576-.037,1.1-.037,1.555v6.237a.849.849,0,0,1-.562.8,6.309,6.309,0,0,1-1.367.306Zm-.085-.975a2.119,2.119,0,0,1,.283.74,5.831,5.831,0,0,0,1.211-.278.647.647,0,0,0,.431-.611v-6.23c0-.43.011-.92.032-1.456h-5.853c-.391,0-.826-.012-1.295-.035v.543c.482-.023.93-.035,1.332-.035h5.181v6.58c0,.4-.1.627-.289.7A3.582,3.582,0,0,1,4196.745,640.307Zm-4.013-.079h-1.027l.012-.113c.048-.474.073-.9.073-1.269v-1.48a11.16,11.16,0,0,0-.073-1.188l-.012-.114h4.861l-.008.11c-.023.368-.036.769-.036,1.193v.88c0,.425.012.867.036,1.314l.006.109h-1.021v-.52h-2.811Zm-.8-.206h.593v-1.08h3.223v.52h.6c-.021-.413-.031-.822-.031-1.216v-.88c0-.386.01-.755.03-1.1h-4.412c.041.409.063.778.063,1.1v1.479C4192,639.19,4191.975,639.586,4191.933,640.021Zm3.816-1.513h-3.223V636.7h3.223Zm-3.017-.206h2.811v-1.393h-2.811Zm-1.862-3.147v-1.017l.108.006c.482.026.963.04,1.429.04h3.385c.32,0,.752-.013,1.282-.04l.108-.005v1.016l-.108-.006c-.526-.027-.934-.04-1.246-.04h-3.421c-.456,0-.936.013-1.43.04Zm1.538-.251h3.421c.295,0,.671.011,1.148.035v-.583c-.485.023-.883.035-1.185.035h-3.385c-.435,0-.882-.011-1.332-.034v.583C4191.535,634.916,4191.982,634.9,4192.408,634.9Z" transform="translate(-4190.87 -632.22)"/>
      </g>
    </g>
    <g id="logo" transform="translate(-411.236 -197.53)">
      <path id="路径_73" data-name="路径 73" class="cls-1" d="M148.351,846.95l7.429,6.784s-4.425,10.482-17.152,8.858c0,0-12.66-2.052-13.408-15.733,0,0,2.332,5.164,4.193,6.6,0,0,12.512,9.806,18.938-6.511Z" transform="translate(-125.22 -830.726)"/>
      <path id="路径_74" data-name="路径 74" class="cls-1" d="M169,410.47s-14.322,1.909-12.925,14.957c0,0,.422,5.233,4.47,8.2,0,0,5.124,3.536,9.223.257,0,0-10.812-6-7.277-17.525,0,0,1.156-3.56,6.508-5.893Z" transform="translate(-154.837 -410.47)"/>
      <path id="路径_75" data-name="路径 75" class="cls-1" d="M355.332,428.995s-6.036-10.956-17.258-6.241c0,0-6.917,2.2-4.371,10.829,0,0,5.074-6.764,10.738-7.269a13.852,13.852,0,0,1,10.891,2.681Z" transform="translate(-325.453 -421.165)"/>
    </g>
  </g>
</svg>
