<svg id="csryxz_check" xmlns="http://www.w3.org/2000/svg" width="24" height="24" viewBox="0 0 24 24">
  <defs>
    <style>
      .cls-1 {
        fill: none;
      }

      .cls-2 {
        fill: #333;
      }
    </style>
  </defs>
  <path id="路径_533" data-name="路径 533" class="cls-1" d="M0,0H24V24H0Z"/>
  <path id="路径_534" data-name="路径 534" class="cls-2" d="M9,1V3h6V1h2V3h4a1,1,0,0,1,1,1V20a1,1,0,0,1-1,1H3a1,1,0,0,1-1-1V4A1,1,0,0,1,3,3H7V1ZM20,8H4V19H20Zm-4.964,2.136L16.45,11.55,11.5,16.5,7.964,12.964,9.38,11.55,11.5,13.672l3.536-3.536Z"/>
</svg>
