<svg xmlns="http://www.w3.org/2000/svg" xmlns:xlink="http://www.w3.org/1999/xlink" width="24" height="24" viewBox="0 0 24 24">
  <defs>
    <style>
      .cls-1, .cls-3 {
        fill: none;
      }

      .cls-2 {
        fill: url(#linear-gradient);
      }

      .cls-3 {
        stroke: #fff;
        stroke-linecap: round;
        opacity: 0.711;
      }
    </style>
    <linearGradient id="linear-gradient" x1="0.267" y1="0.332" x2="0.5" y2="0.712" gradientUnits="objectBoundingBox">
      <stop offset="0" stop-color="#ffcb58"/>
      <stop offset="1" stop-color="#ffb533"/>
    </linearGradient>
  </defs>
  <g id="ysyy_icon_score_s" transform="translate(-993 -50)">
    <rect id="矩形_2593" data-name="矩形 2593" class="cls-1" width="24" height="24" transform="translate(993 50)"/>
    <path id="五角星2" class="cls-2" d="M164.61,165.287a1.218,1.218,0,0,0-.979-.827l-6.819-.992-3.048-6.189a1.205,1.205,0,0,0-.449-.494,1.215,1.215,0,0,0-1.286,0,1.205,1.205,0,0,0-.449.494l-3.051,6.186-6.819.992a1.218,1.218,0,0,0-.672,2.078l4.938,4.815-1.167,6.8a1.221,1.221,0,0,0,.071.663,1.24,1.24,0,0,0,.41.527,1.216,1.216,0,0,0,1.28.094l6.1-3.216,6.1,3.212a1.2,1.2,0,0,0,.653.136,1.224,1.224,0,0,0,.627-.229,1.2,1.2,0,0,0,.41-.527,1.222,1.222,0,0,0,.071-.663l-1.163-6.8,4.935-4.819a1.2,1.2,0,0,0,.33-.578A1.226,1.226,0,0,0,164.61,165.287Z" transform="translate(852.332 -105.6)"/>
    <path id="路径_333" data-name="路径 333" class="cls-3" d="M1004.352,53.18l-2,4.393"/>
  </g>
</svg>
