<svg xmlns="http://www.w3.org/2000/svg" width="32" height="32" viewBox="0 0 32 32">
  <defs>
    <style>
      .cls-1, .cls-3 {
        fill: none;
      }

      .cls-1 {
        stroke: #337fdd;
        opacity: 0.26;
      }

      .cls-2 {
        fill: #1565c9;
      }

      .cls-4 {
        fill: #fff;
      }

      .cls-5 {
        stroke: none;
      }
    </style>
  </defs>
  <g id="Nav_user_img" transform="translate(-1429 -45)">
    <g id="椭圆_27" data-name="椭圆 27" class="cls-1" transform="translate(1429 45)">
      <circle class="cls-5" cx="16" cy="16" r="16"/>
      <circle class="cls-3" cx="16" cy="16" r="15.5"/>
    </g>
    <circle id="椭圆_28" data-name="椭圆 28" class="cls-2" cx="13" cy="13" r="13" transform="translate(1432 48)"/>
    <path id="路径_268" data-name="路径 268" class="cls-3" d="M0,0H16V16H0Z" transform="translate(1437 52.883)"/>
    <path id="路径_269" data-name="路径 269" class="cls-4" d="M8.83,9.8v4h1.38v-4a5.435,5.435,0,0,1,4.83,5.345H4A5.435,5.435,0,0,1,8.83,9.8Zm.69-.715A4.09,4.09,0,0,1,5.38,5.04,4.09,4.09,0,0,1,9.52,1a4.09,4.09,0,0,1,4.14,4.04A4.09,4.09,0,0,1,9.52,9.08Z" transform="translate(1435.48 52.502)"/>
  </g>
</svg>
