<svg xmlns="http://www.w3.org/2000/svg" width="16" height="16" viewBox="0 0 16 16">
  <defs>
    <style>
      .cls-1 {
        fill: none;
      }

      .cls-2 {
        fill: #2c76d1;
      }
    </style>
  </defs>
  <g id="Notice_icon" transform="translate(0 1)">
    <rect id="矩形_2507" data-name="矩形 2507" class="cls-1" width="16" height="16" transform="translate(0 -1)"/>
    <path id="gonggao" class="cls-2" d="M73.633,129.617a1.382,1.382,0,0,1-.757-.273L68.653,126.2h-3.03a.779.779,0,0,1-.53-.2.708.708,0,0,1-.227-.528v-5.919a.784.784,0,0,1,.227-.547.765.765,0,0,1,.53-.215h2.935l4.3-3.126a1.389,1.389,0,0,1,.776-.273c.625,0,.833.645.852.977V128.64C74.485,128.973,74.258,129.617,73.633,129.617Zm5.946-12.8a.9.9,0,0,1,.038.664.84.84,0,0,1-.436.488l-1.534.723a.823.823,0,0,1-.644.039.833.833,0,0,1-.473-.449.9.9,0,0,1-.038-.664.84.84,0,0,1,.436-.488l1.534-.723a.823.823,0,0,1,.644-.039A.834.834,0,0,1,79.578,116.821Zm0,10.53a.9.9,0,0,0,.038-.664.84.84,0,0,0-.436-.488l-1.534-.723a.823.823,0,0,0-.644-.039.833.833,0,0,0-.473.449.9.9,0,0,0-.038.664.84.84,0,0,0,.436.488l1.534.723a.823.823,0,0,0,.644.039A.834.834,0,0,0,79.578,127.351Zm1.288-5.158a.871.871,0,0,0-.246-.606.852.852,0,0,0-.587-.254H78.348a.86.86,0,0,0,0,1.719h1.666a.888.888,0,0,0,.852-.86Z" transform="translate(-64.866 -115.395)"/>
  </g>
</svg>
