<svg xmlns="http://www.w3.org/2000/svg" xmlns:xlink="http://www.w3.org/1999/xlink" width="56" height="56" viewBox="0 0 56 56">
  <defs>
    <style>
      .cls-1, .cls-6 {
        fill: none;
      }

      .cls-1 {
        stroke: #3b98ff;
      }

      .cls-2 {
        fill: #45a2ff;
      }

      .cls-3 {
        fill: url(#linear-gradient);
      }

      .cls-4 {
        fill: #fff;
      }

      .cls-5 {
        stroke: none;
      }
    </style>
    <linearGradient id="linear-gradient" x1="0.5" y1="0.5" x2="0.667" y2="0.839" gradientUnits="objectBoundingBox">
      <stop offset="0" stop-color="#3c92fc"/>
      <stop offset="1" stop-color="#4da5ff"/>
    </linearGradient>
  </defs>
  <g id="ysrygl_user_img" transform="translate(-1429 -45)">
    <g id="椭圆_27" data-name="椭圆 27" class="cls-1" transform="translate(1429 45)">
      <circle class="cls-5" cx="28" cy="28" r="28"/>
      <circle class="cls-6" cx="28" cy="28" r="27.5"/>
    </g>
    <circle id="椭圆_28" data-name="椭圆 28" class="cls-2" cx="25" cy="25" r="25" transform="translate(1432 48)"/>
    <path id="路径_446" data-name="路径 446" class="cls-3" d="M3411.968,14382.727,3397,14365.295l22.134-2.043L3418,14347.07l15.622,15.314a25.021,25.021,0,0,1-20.9,20.342Z" transform="translate(-1952 -14285)"/>
    <path id="微名片" class="cls-4" d="M157.984,209a.858.858,0,1,0,0,1.716h3.429a.858.858,0,1,0,0-1.716Zm-1.713-5.142a.858.858,0,1,0,0,1.716h5.142a.858.858,0,1,0,0-1.716Zm-6,3a1.713,1.713,0,1,1,1.713-1.713A1.713,1.713,0,0,1,150.274,206.858ZM145.129,197h17.142a3.428,3.428,0,0,1,3.429,3.429v13.713a3.428,3.428,0,0,1-3.429,3.429H145.129a3.428,3.428,0,0,1-3.429-3.429V200.429A3.428,3.428,0,0,1,145.129,197Zm1.823,14.142a3.431,3.431,0,0,1,6.644,0Zm8.46.858a5.139,5.139,0,0,0-2.649-4.5,3.429,3.429,0,1,0-4.983,0,5.144,5.144,0,0,0-2.655,4.5.857.857,0,0,0,.858.858h8.571A.861.861,0,0,0,155.413,212Z" transform="translate(1303.3 -135)"/>
  </g>
</svg>
