<svg id="yylpfcx_switch_on" xmlns="http://www.w3.org/2000/svg" width="24" height="24" viewBox="0 0 24 24">
  <defs>
    <style>
      .cls-1 {
        fill: none;
      }

      .cls-2 {
        fill: #2c76d1;
      }
    </style>
  </defs>
  <path id="路径_358" data-name="路径 358" class="cls-1" d="M0,0H24V24H0Z"/>
  <path id="减去_3" data-name="减去 3" class="cls-2" d="M-238,12128h-8a7.009,7.009,0,0,1-7-7,7.008,7.008,0,0,1,7-7h8a7.008,7.008,0,0,1,7,7A7.009,7.009,0,0,1-238,12128Zm0-12a5,5,0,0,0-5,5,5,5,0,0,0,5,5,5.006,5.006,0,0,0,5-5A5.006,5.006,0,0,0-238,12116Z" transform="translate(254 -12109)"/>
</svg>
