<svg xmlns="http://www.w3.org/2000/svg" width="24" height="24" viewBox="0 0 24 24">
  <defs>
    <style>
      .cls-1 {
        fill: none;
      }

      .cls-2 {
        fill: #0050b3;
      }
    </style>
  </defs>
  <g id="zysc_icon_setting_s" transform="translate(-1579 -272)">
    <rect id="矩形_2601" data-name="矩形 2601" class="cls-1" width="24" height="24" transform="translate(1579 272)"/>
    <g id="settings-3-line" transform="translate(1579 272)">
      <path id="路径_336" data-name="路径 336" class="cls-1" d="M0,0H24V24H0Z"/>
      <path id="路径_337" data-name="路径 337" class="cls-2" d="M3.34,17a10.018,10.018,0,0,1-.978-2.326,3,3,0,0,0,0-5.347,9.99,9.99,0,0,1,2.5-4.337A3,3,0,0,0,9.5,2.316a9.99,9.99,0,0,1,5.007,0A3,3,0,0,0,19.135,4.99a10.078,10.078,0,0,1,2.5,4.336,3,3,0,0,0,0,5.347,9.99,9.99,0,0,1-2.5,4.337A3,3,0,0,0,14.5,21.684a9.99,9.99,0,0,1-5.007,0A3,3,0,0,0,4.865,19.01,10.018,10.018,0,0,1,3.34,17ZM9,17.2a4.993,4.993,0,0,1,2.25,2.77,7.986,7.986,0,0,0,1.5,0,5,5,0,0,1,5.776-3.335,7.933,7.933,0,0,0,.748-1.3,5,5,0,0,1,0-6.668,8.126,8.126,0,0,0-.75-1.3A5,5,0,0,1,12.75,4.034a7.986,7.986,0,0,0-1.5,0A5,5,0,0,1,5.475,7.368a7.99,7.99,0,0,0-.748,1.3,5,5,0,0,1,0,6.668,8.126,8.126,0,0,0,.75,1.3A4.993,4.993,0,0,1,9,17.2ZM12,15a3,3,0,1,1,3-3A3,3,0,0,1,12,15Zm0-2a1,1,0,1,0-1-1A1,1,0,0,0,12,13Z"/>
    </g>
  </g>
</svg>
