<svg xmlns="http://www.w3.org/2000/svg" width="24" height="24" viewBox="0 0 24 24">
  <defs>
    <style>
      .cls-1 {
        fill: none;
      }

      .cls-2 {
        fill: #2c76d1;
      }
    </style>
  </defs>
  <g id="zyxz_icon_download" transform="translate(-884 -557.999)">
    <rect id="矩形_2522" data-name="矩形 2522" class="cls-1" width="24" height="24" transform="translate(884 557.999)"/>
    <g id="zyxz_icon_download-2" data-name="zyxz_icon_download" transform="translate(883 557)">
      <path id="路径_303" data-name="路径 303" class="cls-1" d="M0,0H22V22.108H0Z" transform="translate(2 2)"/>
      <path id="路径_304" data-name="路径 304" class="cls-2" d="M13.4,5.19h9.4A1.1,1.1,0,0,1,23.9,6.285V21.613A1.1,1.1,0,0,1,22.8,22.708H3.095A1.1,1.1,0,0,1,2,21.613V4.095A1.1,1.1,0,0,1,3.095,3h8.117Zm.642,8.759V9.569h-2.19v4.379H8.569l4.379,4.379,4.379-4.379Z"/>
    </g>
  </g>
</svg>
