<svg xmlns="http://www.w3.org/2000/svg" width="48" height="48" viewBox="0 0 48 48">
  <defs>
    <style>
      .cls-1 {
        fill: none;
      }

      .cls-2 {
        fill: #edf4ff;
      }

      .cls-3 {
        fill: #22a2ff;
      }

      .cls-4 {
        fill: #0050b3;
      }
    </style>
  </defs>
  <g id="zyxz_icon_scjg" transform="translate(-324 -220)">
    <rect id="矩形_2510" data-name="矩形 2510" class="cls-1" width="48" height="48" transform="translate(324 220)"/>
    <circle id="椭圆_29" data-name="椭圆 29" class="cls-2" cx="23" cy="23" r="23" transform="translate(325 221)"/>
    <path id="建筑" class="cls-3" d="M142.414,148.842h-.634V135.179a.981.981,0,0,0-.975-.975l-4.766-2a.228.228,0,0,0-.232.232v16.391c.042.035-.029,1.748,0,1.749h6.623a.865.865,0,0,0,.867-.867A.878.878,0,0,0,142.414,148.842Z" transform="translate(216.704 104.512)"/>
    <path id="建筑-2" data-name="建筑" class="cls-4" d="M142.414,148.842h-.634c-.028.019-5.973.012-5.973-.015H134.77V124.85a1.374,1.374,0,0,0-1.362-1.362l-11.3,4a1.374,1.374,0,0,0-1.362,1.362v19.992h-.588a.867.867,0,1,0,0,1.733h22.267a.865.865,0,0,0,.867-.867A.878.878,0,0,0,142.414,148.842Zm-17.284-15.83,5.277-4a.774.774,0,0,1,0,1.547l-5.277,4a.766.766,0,0,1-.774-.774A.786.786,0,0,1,125.13,133.012Zm0,4.24,5.277-4a.774.774,0,0,1,0,1.547l-5.277,4a.766.766,0,0,1-.774-.774A.776.776,0,0,1,125.13,137.252Zm0,4.271,5.277-4a.774.774,0,0,1,0,1.547l-5.277,4a.766.766,0,0,1-.774-.774A.776.776,0,0,1,125.13,141.523Z" transform="translate(216.704 104.512)"/>
  </g>
</svg>
